M48
; DRILL file {KiCad 7.0.11+dfsg-1build4} date dom 28 dic 2025, 20:15:05
; FORMAT={-:-/ absolute / metric / decimal}
; #@! TF.CreationDate,2025-12-28T20:15:05+01:00
; #@! TF.GenerationSoftware,Kicad,Pcbnew,7.0.11+dfsg-1build4
; #@! TF.FileFunction,Plated,1,2,PTH
FMAT,2
METRIC
; #@! TA.AperFunction,Plated,PTH,ViaDrill
T1C0.400
; #@! TA.AperFunction,Plated,PTH,ComponentDrill
T2C0.750
; #@! TA.AperFunction,Plated,PTH,ComponentDrill
T3C0.800
; #@! TA.AperFunction,Plated,PTH,ComponentDrill
T4C1.100
; #@! TA.AperFunction,Plated,PTH,ComponentDrill
T5C1.300
; #@! TA.AperFunction,Plated,PTH,ComponentDrill
T6C1.600
%
G90
G05
T1
X144.78Y-73.66
X144.78Y-76.2
X144.78Y-78.74
X144.78Y-81.28
X147.32Y-71.12
X149.86Y-68.58
X152.4Y-66.04
X154.94Y-63.5
X165.1Y-58.42
X167.64Y-58.42
X170.18Y-58.42
X170.18Y-91.44
X172.72Y-58.42
X172.72Y-91.44
X175.26Y-58.42
X177.8Y-58.42
X180.34Y-58.42
X182.88Y-99.06
X182.88Y-101.6
X182.88Y-104.14
X182.88Y-106.68
X182.88Y-109.22
X182.88Y-111.76
X187.96Y-71.12
X187.96Y-76.2
X187.96Y-81.28
X187.96Y-86.36
X187.96Y-91.44
X187.96Y-96.52
X187.96Y-101.6
X187.96Y-106.68
X187.96Y-111.76
T2
X160.02Y-128.26
X160.02Y-129.53
X160.02Y-130.8
T3
X78.78Y-85.08
X81.28Y-85.08
X89.02Y-85.08
X91.52Y-85.08
X94.06Y-64.76
X94.14Y-57.14
X96.6Y-82.54
X99.06Y-64.76
X99.14Y-57.14
X101.6Y-82.54
X114.3Y-88.9
X115.56Y-67.3
X115.56Y-69.84
X115.56Y-72.38
X115.56Y-74.92
X116.84Y-116.83
X116.84Y-124.45
X121.92Y-52.07
X121.92Y-59.69
X121.92Y-88.9
X123.18Y-67.3
X123.18Y-69.84
X123.18Y-72.38
X123.18Y-74.92
X132.08Y-60.96
X139.7Y-60.96
X157.48Y-76.2
X160.02Y-76.2
X162.56Y-76.2
T4
X86.36Y-110.48
X86.36Y-113.02
X86.36Y-115.56
X94.06Y-74.92
X96.6Y-74.92
X99.14Y-74.92
X127.0Y-115.56
X127.0Y-118.1
X127.0Y-120.64
X148.56Y-107.9
X149.38Y-119.88
X158.76Y-107.9
X159.54Y-119.88
T5
X78.74Y-52.06
X78.74Y-57.14
X177.32Y-91.94
X182.4Y-91.94
X182.88Y-118.1
X187.96Y-118.1
X188.553Y-60.492
X188.553Y-65.572
T6
X144.76Y-95.24
X162.56Y-92.7
M30
