%TF.GenerationSoftware,KiCad,Pcbnew,7.0.11+dfsg-1build4*%
%TF.CreationDate,2025-12-28T20:15:01+01:00*%
%TF.ProjectId,recruitment,72656372-7569-4746-9d65-6e742e6b6963,V0*%
%TF.SameCoordinates,Original*%
%TF.FileFunction,Soldermask,Top*%
%TF.FilePolarity,Negative*%
%FSLAX46Y46*%
G04 Gerber Fmt 4.6, Leading zero omitted, Abs format (unit mm)*
G04 Created by KiCad (PCBNEW 7.0.11+dfsg-1build4) date 2025-12-28 20:15:01*
%MOMM*%
%LPD*%
G01*
G04 APERTURE LIST*
G04 Aperture macros list*
%AMRoundRect*
0 Rectangle with rounded corners*
0 $1 Rounding radius*
0 $2 $3 $4 $5 $6 $7 $8 $9 X,Y pos of 4 corners*
0 Add a 4 corners polygon primitive as box body*
4,1,4,$2,$3,$4,$5,$6,$7,$8,$9,$2,$3,0*
0 Add four circle primitives for the rounded corners*
1,1,$1+$1,$2,$3*
1,1,$1+$1,$4,$5*
1,1,$1+$1,$6,$7*
1,1,$1+$1,$8,$9*
0 Add four rect primitives between the rounded corners*
20,1,$1+$1,$2,$3,$4,$5,0*
20,1,$1+$1,$4,$5,$6,$7,0*
20,1,$1+$1,$6,$7,$8,$9,0*
20,1,$1+$1,$8,$9,$2,$3,0*%
G04 Aperture macros list end*
%ADD10C,1.600000*%
%ADD11O,1.600000X1.600000*%
%ADD12R,2.600000X2.600000*%
%ADD13C,2.600000*%
%ADD14R,1.600000X1.600000*%
%ADD15R,2.000000X1.905000*%
%ADD16O,2.000000X1.905000*%
%ADD17R,1.905000X2.000000*%
%ADD18O,1.905000X2.000000*%
%ADD19C,3.000000*%
%ADD20RoundRect,0.500000X-0.500000X0.500000X-0.500000X-0.500000X0.500000X-0.500000X0.500000X0.500000X0*%
%ADD21C,2.000000*%
%ADD22R,1.600000X0.500000*%
%ADD23R,0.600000X0.900000*%
%ADD24R,1.700000X1.800000*%
%ADD25R,1.500000X1.050000*%
%ADD26O,1.500000X1.050000*%
%ADD27R,2.200000X2.200000*%
%ADD28O,2.200000X2.200000*%
%ADD29C,1.440000*%
G04 APERTURE END LIST*
D10*
%TO.C,R3*%
X121920000Y-88900000D03*
D11*
X114300000Y-88900000D03*
%TD*%
D12*
%TO.C,J2*%
X188553469Y-65572500D03*
D13*
X188553469Y-60492500D03*
%TD*%
D14*
%TO.C,C1*%
X78780000Y-85080000D03*
D10*
X81280000Y-85080000D03*
%TD*%
%TO.C,C2*%
X96600000Y-82540000D03*
X101600000Y-82540000D03*
%TD*%
D15*
%TO.C,Q1*%
X127000000Y-115560000D03*
D16*
X127000000Y-118100000D03*
X127000000Y-120640000D03*
%TD*%
D17*
%TO.C,U3*%
X94060000Y-74920000D03*
D18*
X96600000Y-74920000D03*
X99140000Y-74920000D03*
%TD*%
D19*
%TO.C,K1*%
X144760000Y-95240000D03*
X162560000Y-92700000D03*
D20*
X148560000Y-107900000D03*
D21*
X158760000Y-107900000D03*
%TD*%
D22*
%TO.C,U1*%
X162470000Y-60280000D03*
X162470000Y-58680000D03*
X162470000Y-57080000D03*
D23*
X159970000Y-55880000D03*
D24*
X157620000Y-57180000D03*
X157620000Y-60180000D03*
D23*
X159970000Y-61480000D03*
%TD*%
D25*
%TO.C,Q2*%
X160020000Y-128260000D03*
D26*
X160020000Y-129530000D03*
X160020000Y-130800000D03*
%TD*%
D10*
%TO.C,R1*%
X121920000Y-52070000D03*
D11*
X121920000Y-59690000D03*
%TD*%
D12*
%TO.C,J1*%
X78740000Y-57140000D03*
D13*
X78740000Y-52060000D03*
%TD*%
D10*
%TO.C,C4*%
X99140000Y-57140000D03*
X94140000Y-57140000D03*
%TD*%
%TO.C,R4*%
X116840000Y-124450000D03*
D11*
X116840000Y-116830000D03*
%TD*%
D14*
%TO.C,C3*%
X89020000Y-85080000D03*
D10*
X91520000Y-85080000D03*
%TD*%
D27*
%TO.C,D1*%
X149380000Y-119880000D03*
D28*
X159540000Y-119880000D03*
%TD*%
D15*
%TO.C,U2*%
X86360000Y-115560000D03*
D16*
X86360000Y-113020000D03*
X86360000Y-110480000D03*
%TD*%
D10*
%TO.C,C5*%
X94060000Y-64760000D03*
X99060000Y-64760000D03*
%TD*%
D14*
%TO.C,U4*%
X123180000Y-74920000D03*
D11*
X123180000Y-72380000D03*
X123180000Y-69840000D03*
X123180000Y-67300000D03*
X115560000Y-67300000D03*
X115560000Y-69840000D03*
X115560000Y-72380000D03*
X115560000Y-74920000D03*
%TD*%
D12*
%TO.C,J4*%
X182880000Y-118100000D03*
D13*
X187960000Y-118100000D03*
%TD*%
D10*
%TO.C,R2*%
X139700000Y-60960000D03*
D11*
X132080000Y-60960000D03*
%TD*%
D29*
%TO.C,RV1*%
X157480000Y-76200000D03*
X160020000Y-76200000D03*
X162560000Y-76200000D03*
%TD*%
D12*
%TO.C,J3*%
X177320000Y-91940000D03*
D13*
X182400000Y-91940000D03*
%TD*%
M02*
