%TF.GenerationSoftware,KiCad,Pcbnew,7.0.11+dfsg-1build4*%
%TF.CreationDate,2025-12-28T20:15:00+01:00*%
%TF.ProjectId,recruitment,72656372-7569-4746-9d65-6e742e6b6963,V0*%
%TF.SameCoordinates,Original*%
%TF.FileFunction,Copper,L2,Bot*%
%TF.FilePolarity,Positive*%
%FSLAX46Y46*%
G04 Gerber Fmt 4.6, Leading zero omitted, Abs format (unit mm)*
G04 Created by KiCad (PCBNEW 7.0.11+dfsg-1build4) date 2025-12-28 20:15:00*
%MOMM*%
%LPD*%
G01*
G04 APERTURE LIST*
G04 Aperture macros list*
%AMRoundRect*
0 Rectangle with rounded corners*
0 $1 Rounding radius*
0 $2 $3 $4 $5 $6 $7 $8 $9 X,Y pos of 4 corners*
0 Add a 4 corners polygon primitive as box body*
4,1,4,$2,$3,$4,$5,$6,$7,$8,$9,$2,$3,0*
0 Add four circle primitives for the rounded corners*
1,1,$1+$1,$2,$3*
1,1,$1+$1,$4,$5*
1,1,$1+$1,$6,$7*
1,1,$1+$1,$8,$9*
0 Add four rect primitives between the rounded corners*
20,1,$1+$1,$2,$3,$4,$5,0*
20,1,$1+$1,$4,$5,$6,$7,0*
20,1,$1+$1,$6,$7,$8,$9,0*
20,1,$1+$1,$8,$9,$2,$3,0*%
G04 Aperture macros list end*
%TA.AperFunction,ComponentPad*%
%ADD10C,1.600000*%
%TD*%
%TA.AperFunction,ComponentPad*%
%ADD11O,1.600000X1.600000*%
%TD*%
%TA.AperFunction,ComponentPad*%
%ADD12R,2.600000X2.600000*%
%TD*%
%TA.AperFunction,ComponentPad*%
%ADD13C,2.600000*%
%TD*%
%TA.AperFunction,ComponentPad*%
%ADD14R,1.600000X1.600000*%
%TD*%
%TA.AperFunction,ComponentPad*%
%ADD15R,2.000000X1.905000*%
%TD*%
%TA.AperFunction,ComponentPad*%
%ADD16O,2.000000X1.905000*%
%TD*%
%TA.AperFunction,ComponentPad*%
%ADD17R,1.905000X2.000000*%
%TD*%
%TA.AperFunction,ComponentPad*%
%ADD18O,1.905000X2.000000*%
%TD*%
%TA.AperFunction,ComponentPad*%
%ADD19C,3.000000*%
%TD*%
%TA.AperFunction,ComponentPad*%
%ADD20RoundRect,0.500000X-0.500000X0.500000X-0.500000X-0.500000X0.500000X-0.500000X0.500000X0.500000X0*%
%TD*%
%TA.AperFunction,ComponentPad*%
%ADD21C,2.000000*%
%TD*%
%TA.AperFunction,ComponentPad*%
%ADD22R,1.500000X1.050000*%
%TD*%
%TA.AperFunction,ComponentPad*%
%ADD23O,1.500000X1.050000*%
%TD*%
%TA.AperFunction,ComponentPad*%
%ADD24R,2.200000X2.200000*%
%TD*%
%TA.AperFunction,ComponentPad*%
%ADD25O,2.200000X2.200000*%
%TD*%
%TA.AperFunction,ComponentPad*%
%ADD26C,1.440000*%
%TD*%
%TA.AperFunction,ViaPad*%
%ADD27C,0.800000*%
%TD*%
%TA.AperFunction,Conductor*%
%ADD28C,0.250000*%
%TD*%
G04 APERTURE END LIST*
D10*
%TO.P,R3,1*%
%TO.N,FAULT_DRV*%
X121920000Y-88900000D03*
D11*
%TO.P,R3,2*%
%TO.N,+5V*%
X114300000Y-88900000D03*
%TD*%
D12*
%TO.P,J2,1,Pin_1*%
%TO.N,/Power Logic/BATT_NEG*%
X188553469Y-65572500D03*
D13*
%TO.P,J2,2,Pin_2*%
%TO.N,/Power Logic/BATT_POS*%
X188553469Y-60492500D03*
%TD*%
D14*
%TO.P,C1,1*%
%TO.N,/Power Logic/MON_VCC*%
X78780000Y-85080000D03*
D10*
%TO.P,C1,2*%
%TO.N,GND*%
X81280000Y-85080000D03*
%TD*%
%TO.P,C2,1*%
%TO.N,GND*%
X96600000Y-82540000D03*
%TO.P,C2,2*%
%TO.N,3V3_SENS*%
X101600000Y-82540000D03*
%TD*%
D15*
%TO.P,Q1,1,K*%
%TO.N,GND*%
X127000000Y-115560000D03*
D16*
%TO.P,Q1,2,A*%
%TO.N,Net-(Q1-A)*%
X127000000Y-118100000D03*
%TO.P,Q1,3,G*%
%TO.N,FAULT_DRV*%
X127000000Y-120640000D03*
%TD*%
D17*
%TO.P,U3,1,VI*%
%TO.N,+5V*%
X94060000Y-74920000D03*
D18*
%TO.P,U3,2,GND*%
%TO.N,GND*%
X96600000Y-74920000D03*
%TO.P,U3,3,VO*%
%TO.N,3V3_SENS*%
X99140000Y-74920000D03*
%TD*%
D19*
%TO.P,K1,13*%
%TO.N,Net-(U1-IP-)*%
X144760000Y-95240000D03*
%TO.P,K1,14*%
%TO.N,/Power Logic/LOAD_VCC*%
X162560000Y-92700000D03*
D20*
%TO.P,K1,A1*%
%TO.N,+5V*%
X148560000Y-107900000D03*
D21*
%TO.P,K1,A2*%
%TO.N,Net-(D1-A)*%
X158760000Y-107900000D03*
%TD*%
D22*
%TO.P,Q2,1,E*%
%TO.N,GND*%
X160020000Y-128260000D03*
D23*
%TO.P,Q2,2,B*%
%TO.N,Net-(Q1-A)*%
X160020000Y-129530000D03*
%TO.P,Q2,3,C*%
%TO.N,Net-(D1-A)*%
X160020000Y-130800000D03*
%TD*%
D10*
%TO.P,R1,1*%
%TO.N,Net-(U1-VOUT)*%
X121920000Y-52070000D03*
D11*
%TO.P,R1,2*%
%TO.N,Net-(U4A--)*%
X121920000Y-59690000D03*
%TD*%
D12*
%TO.P,J1,1,Pin_1*%
%TO.N,GND*%
X78740000Y-57140000D03*
D13*
%TO.P,J1,2,Pin_2*%
%TO.N,/Power Logic/MON_VCC*%
X78740000Y-52060000D03*
%TD*%
D10*
%TO.P,C4,1*%
%TO.N,GND*%
X99140000Y-57140000D03*
%TO.P,C4,2*%
%TO.N,+5V*%
X94140000Y-57140000D03*
%TD*%
%TO.P,R4,1*%
%TO.N,FAULT_DRV*%
X116840000Y-124450000D03*
D11*
%TO.P,R4,2*%
%TO.N,Net-(Q1-A)*%
X116840000Y-116830000D03*
%TD*%
D14*
%TO.P,C3,1*%
%TO.N,+5V*%
X89020000Y-85080000D03*
D10*
%TO.P,C3,2*%
%TO.N,GND*%
X91520000Y-85080000D03*
%TD*%
D24*
%TO.P,D1,1,K*%
%TO.N,+5V*%
X149380000Y-119880000D03*
D25*
%TO.P,D1,2,A*%
%TO.N,Net-(D1-A)*%
X159540000Y-119880000D03*
%TD*%
D15*
%TO.P,U2,1,VI*%
%TO.N,/Power Logic/MON_VCC*%
X86360000Y-115560000D03*
D16*
%TO.P,U2,2,GND*%
%TO.N,GND*%
X86360000Y-113020000D03*
%TO.P,U2,3,VO*%
%TO.N,+5V*%
X86360000Y-110480000D03*
%TD*%
D10*
%TO.P,C5,1*%
%TO.N,+5V*%
X94060000Y-64760000D03*
%TO.P,C5,2*%
%TO.N,GND*%
X99060000Y-64760000D03*
%TD*%
D14*
%TO.P,U4,1*%
%TO.N,FAULT_DRV*%
X123180000Y-74920000D03*
D11*
%TO.P,U4,2,-*%
%TO.N,Net-(U4A--)*%
X123180000Y-72380000D03*
%TO.P,U4,3,+*%
%TO.N,Net-(U4A-+)*%
X123180000Y-69840000D03*
%TO.P,U4,4,V-*%
%TO.N,GND*%
X123180000Y-67300000D03*
%TO.P,U4,5,+*%
X115560000Y-67300000D03*
%TO.P,U4,6,-*%
X115560000Y-69840000D03*
%TO.P,U4,7*%
%TO.N,unconnected-(U4-Pad7)*%
X115560000Y-72380000D03*
%TO.P,U4,8,V+*%
%TO.N,+5V*%
X115560000Y-74920000D03*
%TD*%
D12*
%TO.P,J4,1,Pin_1*%
%TO.N,/Power Logic/LOAD_RET*%
X182880000Y-118100000D03*
D13*
%TO.P,J4,2,Pin_2*%
%TO.N,/Power Logic/BATT_NEG*%
X187960000Y-118100000D03*
%TD*%
D10*
%TO.P,R2,1*%
%TO.N,/Power Logic/BATT_POS*%
X139700000Y-60960000D03*
D11*
%TO.P,R2,2*%
%TO.N,Net-(U4A--)*%
X132080000Y-60960000D03*
%TD*%
D26*
%TO.P,RV1,1,1*%
%TO.N,3V3_SENS*%
X157480000Y-76200000D03*
%TO.P,RV1,2,2*%
%TO.N,Net-(U4A-+)*%
X160020000Y-76200000D03*
%TO.P,RV1,3,3*%
%TO.N,GND*%
X162560000Y-76200000D03*
%TD*%
D12*
%TO.P,J3,1,Pin_1*%
%TO.N,/Power Logic/LOAD_VCC*%
X177320000Y-91940000D03*
D13*
%TO.P,J3,2,Pin_2*%
%TO.N,/Power Logic/LOAD_RET*%
X182400000Y-91940000D03*
%TD*%
D27*
%TO.N,/Power Logic/BATT_NEG*%
X187960000Y-101600000D03*
X187960000Y-81280000D03*
X187960000Y-71120000D03*
X187960000Y-86360000D03*
X187960000Y-96520000D03*
X187960000Y-91440000D03*
X187960000Y-111760000D03*
X187960000Y-106680000D03*
X187960000Y-76200000D03*
%TO.N,/Power Logic/BATT_POS*%
X170180000Y-58420000D03*
X177800000Y-58420000D03*
X167640000Y-58420000D03*
X172720000Y-58420000D03*
X175260000Y-58420000D03*
X180340000Y-58420000D03*
X165100000Y-58420000D03*
%TO.N,/Power Logic/LOAD_VCC*%
X172720000Y-91440000D03*
X170180000Y-91440000D03*
%TO.N,/Power Logic/LOAD_RET*%
X182880000Y-99060000D03*
X182880000Y-101600000D03*
X182880000Y-111760000D03*
X182880000Y-106680000D03*
X182880000Y-109220000D03*
X182880000Y-104140000D03*
%TO.N,Net-(U1-IP-)*%
X144780000Y-76200000D03*
X154940000Y-63500000D03*
X149860000Y-68580000D03*
X147320000Y-71120000D03*
X144780000Y-81280000D03*
X152400000Y-66040000D03*
X144780000Y-78740000D03*
X144780000Y-73660000D03*
%TD*%
D28*
%TO.N,GND*%
X82455000Y-86255000D02*
X81280000Y-85080000D01*
X91520000Y-85080000D02*
X90345000Y-86255000D01*
X90345000Y-86255000D02*
X82455000Y-86255000D01*
%TO.N,3V3_SENS*%
X151140000Y-82540000D02*
X157480000Y-76200000D01*
X101600000Y-82540000D02*
X151140000Y-82540000D01*
%TO.N,+5V*%
X114185000Y-76295000D02*
X95435000Y-76295000D01*
X95435000Y-76295000D02*
X94060000Y-74920000D01*
X115560000Y-74920000D02*
X114185000Y-76295000D01*
%TO.N,FAULT_DRV*%
X121920000Y-115560000D02*
X127000000Y-120640000D01*
X116840000Y-120640000D02*
X121920000Y-115560000D01*
X116840000Y-124450000D02*
X116840000Y-120640000D01*
X121920000Y-88900000D02*
X121920000Y-115560000D01*
%TO.N,Net-(U4A--)*%
X121920000Y-59690000D02*
X121920000Y-71120000D01*
X121920000Y-71120000D02*
X123180000Y-72380000D01*
%TO.N,Net-(U4A-+)*%
X123180000Y-69840000D02*
X153660000Y-69840000D01*
X153660000Y-69840000D02*
X160020000Y-76200000D01*
%TD*%
%TA.AperFunction,Conductor*%
%TO.N,/Power Logic/LOAD_RET*%
G36*
X185345500Y-88919962D02*
G01*
X185400038Y-88974500D01*
X185420000Y-89049000D01*
X185420000Y-119231000D01*
X185400038Y-119305500D01*
X185345500Y-119360038D01*
X185271000Y-119380000D01*
X184829000Y-119380000D01*
X184754500Y-119360038D01*
X184699962Y-119305500D01*
X184680000Y-119231000D01*
X184680000Y-118350000D01*
X183480728Y-118350000D01*
X183503100Y-118302457D01*
X183533873Y-118141138D01*
X183523561Y-117977234D01*
X183482220Y-117850000D01*
X184680000Y-117850000D01*
X184680000Y-116752177D01*
X184679998Y-116752157D01*
X184673598Y-116692622D01*
X184623354Y-116557915D01*
X184623349Y-116557905D01*
X184537190Y-116442812D01*
X184537187Y-116442809D01*
X184422094Y-116356650D01*
X184422084Y-116356645D01*
X184287376Y-116306401D01*
X184287378Y-116306401D01*
X184227842Y-116300001D01*
X184227823Y-116300000D01*
X183130000Y-116300000D01*
X183130000Y-117495689D01*
X183121183Y-117490842D01*
X182962114Y-117450000D01*
X182839106Y-117450000D01*
X182717067Y-117465417D01*
X182630000Y-117499889D01*
X182630000Y-116300000D01*
X181532177Y-116300000D01*
X181532157Y-116300001D01*
X181472622Y-116306401D01*
X181337915Y-116356645D01*
X181337905Y-116356650D01*
X181222812Y-116442809D01*
X181222809Y-116442812D01*
X181136650Y-116557905D01*
X181136645Y-116557915D01*
X181086401Y-116692622D01*
X181080001Y-116752157D01*
X181080000Y-116752177D01*
X181080000Y-117850000D01*
X182279272Y-117850000D01*
X182256900Y-117897543D01*
X182226127Y-118058862D01*
X182236439Y-118222766D01*
X182277780Y-118350000D01*
X181080000Y-118350000D01*
X181080000Y-119231000D01*
X181060038Y-119305500D01*
X181005500Y-119360038D01*
X180931000Y-119380000D01*
X180489000Y-119380000D01*
X180414500Y-119360038D01*
X180359962Y-119305500D01*
X180340000Y-119231000D01*
X180340000Y-94580267D01*
X180359962Y-94505767D01*
X180414500Y-94451229D01*
X180433614Y-94441944D01*
X180511594Y-94410726D01*
X180628599Y-94323137D01*
X180683137Y-94268599D01*
X180758507Y-94172759D01*
X180816041Y-94038402D01*
X180836003Y-93963902D01*
X180853500Y-93831000D01*
X180853500Y-93175643D01*
X180873462Y-93101143D01*
X180928000Y-93046605D01*
X180944175Y-93042270D01*
X181797452Y-92188992D01*
X181807188Y-92218956D01*
X181895186Y-92357619D01*
X182014903Y-92470040D01*
X182149510Y-92544041D01*
X181314849Y-93378702D01*
X181497481Y-93503219D01*
X181740532Y-93620266D01*
X181740553Y-93620274D01*
X181998333Y-93699789D01*
X181998337Y-93699790D01*
X182265105Y-93739999D01*
X182265112Y-93740000D01*
X182534888Y-93740000D01*
X182534894Y-93739999D01*
X182801662Y-93699790D01*
X182801666Y-93699789D01*
X183059449Y-93620273D01*
X183059453Y-93620272D01*
X183302526Y-93503215D01*
X183302533Y-93503211D01*
X183485150Y-93378703D01*
X182647533Y-92541086D01*
X182715629Y-92514126D01*
X182848492Y-92417595D01*
X182953175Y-92291055D01*
X183001631Y-92188078D01*
X183837703Y-93024150D01*
X183837704Y-93024150D01*
X183891393Y-92956828D01*
X183891398Y-92956820D01*
X184026290Y-92723181D01*
X184026292Y-92723176D01*
X184124854Y-92472046D01*
X184124856Y-92472039D01*
X184184884Y-92209038D01*
X184184887Y-92209016D01*
X184205047Y-91940004D01*
X184205047Y-91939995D01*
X184184887Y-91670983D01*
X184184884Y-91670961D01*
X184124856Y-91407960D01*
X184124854Y-91407953D01*
X184026292Y-91156823D01*
X184026290Y-91156818D01*
X183891400Y-90923183D01*
X183891395Y-90923175D01*
X183837703Y-90855848D01*
X183002546Y-91691004D01*
X182992812Y-91661044D01*
X182904814Y-91522381D01*
X182785097Y-91409960D01*
X182650487Y-91335957D01*
X183485149Y-90501296D01*
X183302521Y-90376782D01*
X183059453Y-90259727D01*
X183059449Y-90259726D01*
X182801666Y-90180210D01*
X182801662Y-90180209D01*
X182534894Y-90140000D01*
X182265105Y-90140000D01*
X181998337Y-90180209D01*
X181998333Y-90180210D01*
X181740553Y-90259725D01*
X181740532Y-90259733D01*
X181497478Y-90376782D01*
X181314849Y-90501295D01*
X181314849Y-90501296D01*
X182152466Y-91338913D01*
X182084371Y-91365874D01*
X181951508Y-91462405D01*
X181846825Y-91588945D01*
X181798368Y-91691921D01*
X180946043Y-90839597D01*
X180935350Y-90837366D01*
X180877841Y-90785971D01*
X180853734Y-90712707D01*
X180853500Y-90704355D01*
X180853500Y-89049000D01*
X180873462Y-88974500D01*
X180928000Y-88919962D01*
X181002500Y-88900000D01*
X185271000Y-88900000D01*
X185345500Y-88919962D01*
G37*
%TD.AperFunction*%
%TD*%
%TA.AperFunction,Conductor*%
%TO.N,/Power Logic/LOAD_VCC*%
G36*
X180265500Y-88919962D02*
G01*
X180320038Y-88974500D01*
X180340000Y-89049000D01*
X180340000Y-93831000D01*
X180320038Y-93905500D01*
X180265500Y-93960038D01*
X180191000Y-93980000D01*
X178892598Y-93980000D01*
X178818098Y-93960038D01*
X178763560Y-93905500D01*
X178743598Y-93831000D01*
X178763560Y-93756500D01*
X178818098Y-93701962D01*
X178840528Y-93691394D01*
X178862090Y-93683351D01*
X178862094Y-93683349D01*
X178977187Y-93597190D01*
X178977190Y-93597187D01*
X179063349Y-93482094D01*
X179063354Y-93482084D01*
X179113598Y-93347377D01*
X179119998Y-93287842D01*
X179120000Y-93287822D01*
X179120000Y-92190000D01*
X177920728Y-92190000D01*
X177943100Y-92142457D01*
X177973873Y-91981138D01*
X177963561Y-91817234D01*
X177922220Y-91690000D01*
X179120000Y-91690000D01*
X179120000Y-90592177D01*
X179119998Y-90592157D01*
X179113598Y-90532622D01*
X179063354Y-90397915D01*
X179063349Y-90397905D01*
X178977190Y-90282812D01*
X178977187Y-90282809D01*
X178862094Y-90196650D01*
X178862084Y-90196645D01*
X178727376Y-90146401D01*
X178727378Y-90146401D01*
X178667842Y-90140001D01*
X178667823Y-90140000D01*
X177570000Y-90140000D01*
X177570000Y-91335689D01*
X177561183Y-91330842D01*
X177402114Y-91290000D01*
X177279106Y-91290000D01*
X177157067Y-91305417D01*
X177070000Y-91339889D01*
X177070000Y-90140000D01*
X175972177Y-90140000D01*
X175972157Y-90140001D01*
X175912622Y-90146401D01*
X175777915Y-90196645D01*
X175777905Y-90196650D01*
X175662812Y-90282809D01*
X175662809Y-90282812D01*
X175576650Y-90397905D01*
X175576645Y-90397915D01*
X175526401Y-90532622D01*
X175520001Y-90592157D01*
X175520000Y-90592177D01*
X175520000Y-91690000D01*
X176719272Y-91690000D01*
X176696900Y-91737543D01*
X176666127Y-91898862D01*
X176676439Y-92062766D01*
X176717780Y-92190000D01*
X175520000Y-92190000D01*
X175520000Y-93287822D01*
X175520001Y-93287842D01*
X175526401Y-93347377D01*
X175576645Y-93482084D01*
X175576650Y-93482094D01*
X175662809Y-93597187D01*
X175662812Y-93597190D01*
X175777905Y-93683349D01*
X175777909Y-93683351D01*
X175799472Y-93691394D01*
X175862299Y-93736133D01*
X175894339Y-93806291D01*
X175887008Y-93883070D01*
X175842269Y-93945897D01*
X175772111Y-93977937D01*
X175747402Y-93980000D01*
X164390931Y-93980000D01*
X164316431Y-93960038D01*
X164261893Y-93905500D01*
X164241931Y-93831000D01*
X164260157Y-93759592D01*
X164383909Y-93532956D01*
X164483889Y-93264898D01*
X164544699Y-92985359D01*
X164544701Y-92985342D01*
X164565109Y-92700006D01*
X164565109Y-92699993D01*
X164544701Y-92414657D01*
X164544699Y-92414640D01*
X164483889Y-92135101D01*
X164383909Y-91867043D01*
X164246806Y-91615957D01*
X164140115Y-91473436D01*
X163276660Y-92336890D01*
X163189423Y-92198052D01*
X163061948Y-92070577D01*
X162923106Y-91983337D01*
X163786562Y-91119882D01*
X163644042Y-91013193D01*
X163392956Y-90876090D01*
X163124898Y-90776110D01*
X162845359Y-90715300D01*
X162845342Y-90715298D01*
X162560006Y-90694891D01*
X162559994Y-90694891D01*
X162274657Y-90715298D01*
X162274640Y-90715300D01*
X161995101Y-90776110D01*
X161727043Y-90876090D01*
X161475956Y-91013194D01*
X161475955Y-91013195D01*
X161333437Y-91119883D01*
X162196892Y-91983338D01*
X162058052Y-92070577D01*
X161930577Y-92198052D01*
X161843338Y-92336892D01*
X160979883Y-91473437D01*
X160873195Y-91615955D01*
X160873194Y-91615956D01*
X160736090Y-91867043D01*
X160636110Y-92135101D01*
X160575300Y-92414640D01*
X160575298Y-92414657D01*
X160554891Y-92699993D01*
X160554891Y-92700006D01*
X160575298Y-92985342D01*
X160575300Y-92985359D01*
X160636110Y-93264898D01*
X160736090Y-93532956D01*
X160859843Y-93759592D01*
X160878027Y-93834546D01*
X160856297Y-93908550D01*
X160800477Y-93961774D01*
X160729069Y-93980000D01*
X160169000Y-93980000D01*
X160094500Y-93960038D01*
X160039962Y-93905500D01*
X160020000Y-93831000D01*
X160020000Y-89049000D01*
X160039962Y-88974500D01*
X160094500Y-88919962D01*
X160169000Y-88900000D01*
X180191000Y-88900000D01*
X180265500Y-88919962D01*
G37*
%TD.AperFunction*%
%TD*%
%TA.AperFunction,Conductor*%
%TO.N,Net-(U1-IP-)*%
G36*
X147245500Y-83193462D02*
G01*
X147300038Y-83248000D01*
X147320000Y-83322500D01*
X147320000Y-96371000D01*
X147300038Y-96445500D01*
X147245500Y-96500038D01*
X147171000Y-96520000D01*
X146590931Y-96520000D01*
X146516431Y-96500038D01*
X146461893Y-96445500D01*
X146441931Y-96371000D01*
X146460157Y-96299592D01*
X146583909Y-96072956D01*
X146683889Y-95804898D01*
X146744699Y-95525359D01*
X146744701Y-95525342D01*
X146765109Y-95240006D01*
X146765109Y-95239993D01*
X146744701Y-94954657D01*
X146744699Y-94954640D01*
X146683889Y-94675101D01*
X146583909Y-94407043D01*
X146446806Y-94155957D01*
X146340115Y-94013436D01*
X145476660Y-94876890D01*
X145389423Y-94738052D01*
X145261948Y-94610577D01*
X145123106Y-94523337D01*
X145986562Y-93659882D01*
X145844042Y-93553193D01*
X145592956Y-93416090D01*
X145324898Y-93316110D01*
X145045359Y-93255300D01*
X145045342Y-93255298D01*
X144760006Y-93234891D01*
X144759994Y-93234891D01*
X144474657Y-93255298D01*
X144474640Y-93255300D01*
X144195101Y-93316110D01*
X143927043Y-93416090D01*
X143675956Y-93553194D01*
X143675955Y-93553195D01*
X143533437Y-93659883D01*
X144396892Y-94523338D01*
X144258052Y-94610577D01*
X144130577Y-94738052D01*
X144043338Y-94876892D01*
X143179883Y-94013437D01*
X143073195Y-94155955D01*
X143073194Y-94155956D01*
X142936090Y-94407043D01*
X142836110Y-94675101D01*
X142775300Y-94954640D01*
X142775298Y-94954657D01*
X142754891Y-95239993D01*
X142754891Y-95240006D01*
X142775298Y-95525342D01*
X142775300Y-95525359D01*
X142836110Y-95804898D01*
X142936090Y-96072956D01*
X143059843Y-96299592D01*
X143078027Y-96374546D01*
X143056297Y-96448550D01*
X143000477Y-96501774D01*
X142929069Y-96520000D01*
X142389000Y-96520000D01*
X142314500Y-96500038D01*
X142259962Y-96445500D01*
X142240000Y-96371000D01*
X142240000Y-83322500D01*
X142259962Y-83248000D01*
X142314500Y-83193462D01*
X142389000Y-83173500D01*
X147171000Y-83173500D01*
X147245500Y-83193462D01*
G37*
%TD.AperFunction*%
%TA.AperFunction,Conductor*%
G36*
X149774343Y-70493462D02*
G01*
X149828881Y-70548000D01*
X149848843Y-70622500D01*
X149828881Y-70697000D01*
X149813495Y-70718854D01*
X147320001Y-73659997D01*
X147320000Y-73660000D01*
X147320000Y-81757500D01*
X147300038Y-81832000D01*
X147245500Y-81886538D01*
X147171000Y-81906500D01*
X142389000Y-81906500D01*
X142314500Y-81886538D01*
X142259962Y-81832000D01*
X142240000Y-81757500D01*
X142240000Y-73721718D01*
X142259962Y-73647218D01*
X142283641Y-73616359D01*
X145382859Y-70517141D01*
X145449654Y-70478577D01*
X145488218Y-70473500D01*
X149699843Y-70473500D01*
X149774343Y-70493462D01*
G37*
%TD.AperFunction*%
%TA.AperFunction,Conductor*%
G36*
X159738589Y-58651194D02*
G01*
X159810669Y-58678638D01*
X159859369Y-58738446D01*
X159871641Y-58814592D01*
X159844197Y-58886672D01*
X159837068Y-58895773D01*
X151140297Y-69153854D01*
X151076894Y-69197771D01*
X151026645Y-69206500D01*
X147053218Y-69206500D01*
X146978718Y-69186538D01*
X146924180Y-69132000D01*
X146904218Y-69057500D01*
X146924180Y-68983000D01*
X146947859Y-68952141D01*
X157429924Y-58470075D01*
X157496717Y-58431513D01*
X157550449Y-58427211D01*
X159738589Y-58651194D01*
G37*
%TD.AperFunction*%
%TD*%
%TA.AperFunction,Conductor*%
%TO.N,/Power Logic/BATT_POS*%
G36*
X190425500Y-55899962D02*
G01*
X190480038Y-55954500D01*
X190500000Y-56029000D01*
X190500000Y-59737793D01*
X190480038Y-59812293D01*
X190425500Y-59866831D01*
X190351000Y-59886793D01*
X190276500Y-59866831D01*
X190221962Y-59812293D01*
X190212300Y-59792229D01*
X190179761Y-59709323D01*
X190179759Y-59709318D01*
X190044869Y-59475683D01*
X190044864Y-59475675D01*
X189991172Y-59408348D01*
X189156015Y-60243504D01*
X189146281Y-60213544D01*
X189058283Y-60074881D01*
X188938566Y-59962460D01*
X188803956Y-59888457D01*
X189638618Y-59053796D01*
X189455990Y-58929282D01*
X189212922Y-58812227D01*
X189212918Y-58812226D01*
X188955135Y-58732710D01*
X188955131Y-58732709D01*
X188688363Y-58692500D01*
X188418574Y-58692500D01*
X188151806Y-58732709D01*
X188151802Y-58732710D01*
X187894022Y-58812225D01*
X187894001Y-58812233D01*
X187650947Y-58929282D01*
X187468318Y-59053795D01*
X187468318Y-59053796D01*
X188305935Y-59891413D01*
X188237840Y-59918374D01*
X188104977Y-60014905D01*
X188000294Y-60141445D01*
X187951836Y-60244421D01*
X187115763Y-59408348D01*
X187062072Y-59475676D01*
X187062069Y-59475681D01*
X186927178Y-59709318D01*
X186927176Y-59709323D01*
X186828614Y-59960453D01*
X186828612Y-59960460D01*
X186768584Y-60223461D01*
X186768581Y-60223483D01*
X186748422Y-60492495D01*
X186748422Y-60492504D01*
X186768581Y-60761516D01*
X186768583Y-60761531D01*
X186772307Y-60777843D01*
X186769424Y-60854917D01*
X186728390Y-60920224D01*
X186660200Y-60956264D01*
X186627043Y-60960000D01*
X185420000Y-60960000D01*
X159081890Y-60960000D01*
X159007390Y-60940038D01*
X158952852Y-60885500D01*
X158932890Y-60811000D01*
X158952852Y-60736500D01*
X158968238Y-60714646D01*
X160228749Y-59227839D01*
X160241312Y-59212426D01*
X160248441Y-59203325D01*
X160253174Y-59197188D01*
X160324090Y-59069388D01*
X160351534Y-58997308D01*
X160381083Y-58879025D01*
X160378599Y-58732889D01*
X160366327Y-58656743D01*
X160332776Y-58539528D01*
X160332774Y-58539526D01*
X160332774Y-58539523D01*
X160332774Y-58539522D01*
X160257562Y-58414218D01*
X160257560Y-58414216D01*
X160257558Y-58414212D01*
X160208858Y-58354404D01*
X160121185Y-58269661D01*
X159993385Y-58198745D01*
X159993383Y-58198744D01*
X159993379Y-58198742D01*
X159921320Y-58171306D01*
X159921302Y-58171300D01*
X159790883Y-58140363D01*
X159790867Y-58140361D01*
X157613827Y-57917514D01*
X157541747Y-57890070D01*
X157493047Y-57830262D01*
X157480000Y-57769289D01*
X157480000Y-56029000D01*
X157499962Y-55954500D01*
X157554500Y-55899962D01*
X157629000Y-55880000D01*
X190351000Y-55880000D01*
X190425500Y-55899962D01*
G37*
%TD.AperFunction*%
%TD*%
%TA.AperFunction,Conductor*%
%TO.N,/Power Logic/BATT_NEG*%
G36*
X187124811Y-63526330D02*
G01*
X187179452Y-63580765D01*
X187199555Y-63655227D01*
X187179733Y-63729764D01*
X187125298Y-63784405D01*
X187102627Y-63795113D01*
X187011380Y-63829147D01*
X187011374Y-63829150D01*
X186896281Y-63915309D01*
X186896278Y-63915312D01*
X186810119Y-64030405D01*
X186810114Y-64030415D01*
X186759870Y-64165122D01*
X186753470Y-64224657D01*
X186753469Y-64224677D01*
X186753469Y-65322500D01*
X187952741Y-65322500D01*
X187930369Y-65370043D01*
X187899596Y-65531362D01*
X187909908Y-65695266D01*
X187951249Y-65822500D01*
X186753469Y-65822500D01*
X186753469Y-66920322D01*
X186753470Y-66920342D01*
X186759870Y-66979877D01*
X186810114Y-67114584D01*
X186810119Y-67114594D01*
X186896278Y-67229687D01*
X186896281Y-67229690D01*
X187011374Y-67315849D01*
X187011384Y-67315854D01*
X187146092Y-67366098D01*
X187146090Y-67366098D01*
X187205626Y-67372498D01*
X187205646Y-67372500D01*
X188303469Y-67372500D01*
X188303469Y-66176810D01*
X188312286Y-66181658D01*
X188471355Y-66222500D01*
X188594363Y-66222500D01*
X188716402Y-66207083D01*
X188803469Y-66172610D01*
X188803469Y-67372500D01*
X189901292Y-67372500D01*
X189901311Y-67372498D01*
X189960846Y-67366098D01*
X190095553Y-67315854D01*
X190095563Y-67315849D01*
X190210656Y-67229690D01*
X190210659Y-67229687D01*
X190231720Y-67201554D01*
X190292347Y-67153877D01*
X190368690Y-67142901D01*
X190440293Y-67171567D01*
X190487970Y-67232194D01*
X190500000Y-67290847D01*
X190500000Y-119240585D01*
X190480038Y-119315085D01*
X190425500Y-119369623D01*
X190351000Y-119389585D01*
X189543278Y-119389585D01*
X189468778Y-119369623D01*
X189414240Y-119315085D01*
X189394278Y-119240585D01*
X189414240Y-119166085D01*
X189426785Y-119147685D01*
X189451395Y-119116824D01*
X189451400Y-119116816D01*
X189586290Y-118883181D01*
X189586292Y-118883176D01*
X189684854Y-118632046D01*
X189684856Y-118632039D01*
X189744884Y-118369038D01*
X189744887Y-118369016D01*
X189765047Y-118100004D01*
X189765047Y-118099995D01*
X189744887Y-117830983D01*
X189744884Y-117830961D01*
X189684856Y-117567960D01*
X189684854Y-117567953D01*
X189586292Y-117316823D01*
X189586290Y-117316818D01*
X189451400Y-117083183D01*
X189451395Y-117083175D01*
X189397703Y-117015848D01*
X188562546Y-117851004D01*
X188552812Y-117821044D01*
X188464814Y-117682381D01*
X188345097Y-117569960D01*
X188210487Y-117495957D01*
X189045149Y-116661296D01*
X188862521Y-116536782D01*
X188619453Y-116419727D01*
X188619449Y-116419726D01*
X188361666Y-116340210D01*
X188361662Y-116340209D01*
X188094894Y-116300000D01*
X187825105Y-116300000D01*
X187558337Y-116340209D01*
X187558333Y-116340210D01*
X187300553Y-116419725D01*
X187300532Y-116419733D01*
X187057478Y-116536782D01*
X186874849Y-116661295D01*
X186874849Y-116661296D01*
X187712466Y-117498913D01*
X187644371Y-117525874D01*
X187511508Y-117622405D01*
X187406825Y-117748945D01*
X187358367Y-117851921D01*
X186522294Y-117015848D01*
X186468603Y-117083176D01*
X186468600Y-117083181D01*
X186333709Y-117316818D01*
X186333707Y-117316823D01*
X186235145Y-117567953D01*
X186235144Y-117567958D01*
X186227764Y-117600293D01*
X186191724Y-117668483D01*
X186126418Y-117709517D01*
X186049344Y-117712401D01*
X185981154Y-117676361D01*
X185940120Y-117611055D01*
X185933500Y-117567137D01*
X185933500Y-89049000D01*
X185933499Y-89048994D01*
X185916005Y-88916113D01*
X185916004Y-88916112D01*
X185916003Y-88916098D01*
X185896041Y-88841598D01*
X185850726Y-88728406D01*
X185763137Y-88611401D01*
X185708599Y-88556863D01*
X185612759Y-88481493D01*
X185612757Y-88481492D01*
X185612756Y-88481491D01*
X185510347Y-88437638D01*
X185449720Y-88389961D01*
X185421054Y-88318358D01*
X185420000Y-88300668D01*
X185420000Y-63658304D01*
X185439962Y-63583804D01*
X185494500Y-63529266D01*
X185568717Y-63509304D01*
X187050277Y-63506508D01*
X187124811Y-63526330D01*
G37*
%TD.AperFunction*%
%TD*%
M02*
