%TF.GenerationSoftware,KiCad,Pcbnew,7.0.11+dfsg-1build4*%
%TF.CreationDate,2025-12-28T20:15:00+01:00*%
%TF.ProjectId,recruitment,72656372-7569-4746-9d65-6e742e6b6963,V0*%
%TF.SameCoordinates,Original*%
%TF.FileFunction,Legend,Top*%
%TF.FilePolarity,Positive*%
%FSLAX46Y46*%
G04 Gerber Fmt 4.6, Leading zero omitted, Abs format (unit mm)*
G04 Created by KiCad (PCBNEW 7.0.11+dfsg-1build4) date 2025-12-28 20:15:00*
%MOMM*%
%LPD*%
G01*
G04 APERTURE LIST*
%ADD10C,0.150000*%
%ADD11C,0.120000*%
G04 APERTURE END LIST*
D10*
X117943333Y-91724819D02*
X117610000Y-91248628D01*
X117371905Y-91724819D02*
X117371905Y-90724819D01*
X117371905Y-90724819D02*
X117752857Y-90724819D01*
X117752857Y-90724819D02*
X117848095Y-90772438D01*
X117848095Y-90772438D02*
X117895714Y-90820057D01*
X117895714Y-90820057D02*
X117943333Y-90915295D01*
X117943333Y-90915295D02*
X117943333Y-91058152D01*
X117943333Y-91058152D02*
X117895714Y-91153390D01*
X117895714Y-91153390D02*
X117848095Y-91201009D01*
X117848095Y-91201009D02*
X117752857Y-91248628D01*
X117752857Y-91248628D02*
X117371905Y-91248628D01*
X118276667Y-90724819D02*
X118895714Y-90724819D01*
X118895714Y-90724819D02*
X118562381Y-91105771D01*
X118562381Y-91105771D02*
X118705238Y-91105771D01*
X118705238Y-91105771D02*
X118800476Y-91153390D01*
X118800476Y-91153390D02*
X118848095Y-91201009D01*
X118848095Y-91201009D02*
X118895714Y-91296247D01*
X118895714Y-91296247D02*
X118895714Y-91534342D01*
X118895714Y-91534342D02*
X118848095Y-91629580D01*
X118848095Y-91629580D02*
X118800476Y-91677200D01*
X118800476Y-91677200D02*
X118705238Y-91724819D01*
X118705238Y-91724819D02*
X118419524Y-91724819D01*
X118419524Y-91724819D02*
X118324286Y-91677200D01*
X118324286Y-91677200D02*
X118276667Y-91629580D01*
X167688288Y-74805833D02*
X168402573Y-74805833D01*
X168402573Y-74805833D02*
X168545430Y-74853452D01*
X168545430Y-74853452D02*
X168640669Y-74948690D01*
X168640669Y-74948690D02*
X168688288Y-75091547D01*
X168688288Y-75091547D02*
X168688288Y-75186785D01*
X167783526Y-74377261D02*
X167735907Y-74329642D01*
X167735907Y-74329642D02*
X167688288Y-74234404D01*
X167688288Y-74234404D02*
X167688288Y-73996309D01*
X167688288Y-73996309D02*
X167735907Y-73901071D01*
X167735907Y-73901071D02*
X167783526Y-73853452D01*
X167783526Y-73853452D02*
X167878764Y-73805833D01*
X167878764Y-73805833D02*
X167974002Y-73805833D01*
X167974002Y-73805833D02*
X168116859Y-73853452D01*
X168116859Y-73853452D02*
X168688288Y-74424880D01*
X168688288Y-74424880D02*
X168688288Y-73805833D01*
X74783333Y-83579580D02*
X74735714Y-83627200D01*
X74735714Y-83627200D02*
X74592857Y-83674819D01*
X74592857Y-83674819D02*
X74497619Y-83674819D01*
X74497619Y-83674819D02*
X74354762Y-83627200D01*
X74354762Y-83627200D02*
X74259524Y-83531961D01*
X74259524Y-83531961D02*
X74211905Y-83436723D01*
X74211905Y-83436723D02*
X74164286Y-83246247D01*
X74164286Y-83246247D02*
X74164286Y-83103390D01*
X74164286Y-83103390D02*
X74211905Y-82912914D01*
X74211905Y-82912914D02*
X74259524Y-82817676D01*
X74259524Y-82817676D02*
X74354762Y-82722438D01*
X74354762Y-82722438D02*
X74497619Y-82674819D01*
X74497619Y-82674819D02*
X74592857Y-82674819D01*
X74592857Y-82674819D02*
X74735714Y-82722438D01*
X74735714Y-82722438D02*
X74783333Y-82770057D01*
X75735714Y-83674819D02*
X75164286Y-83674819D01*
X75450000Y-83674819D02*
X75450000Y-82674819D01*
X75450000Y-82674819D02*
X75354762Y-82817676D01*
X75354762Y-82817676D02*
X75259524Y-82912914D01*
X75259524Y-82912914D02*
X75164286Y-82960533D01*
X98933333Y-80359580D02*
X98885714Y-80407200D01*
X98885714Y-80407200D02*
X98742857Y-80454819D01*
X98742857Y-80454819D02*
X98647619Y-80454819D01*
X98647619Y-80454819D02*
X98504762Y-80407200D01*
X98504762Y-80407200D02*
X98409524Y-80311961D01*
X98409524Y-80311961D02*
X98361905Y-80216723D01*
X98361905Y-80216723D02*
X98314286Y-80026247D01*
X98314286Y-80026247D02*
X98314286Y-79883390D01*
X98314286Y-79883390D02*
X98361905Y-79692914D01*
X98361905Y-79692914D02*
X98409524Y-79597676D01*
X98409524Y-79597676D02*
X98504762Y-79502438D01*
X98504762Y-79502438D02*
X98647619Y-79454819D01*
X98647619Y-79454819D02*
X98742857Y-79454819D01*
X98742857Y-79454819D02*
X98885714Y-79502438D01*
X98885714Y-79502438D02*
X98933333Y-79550057D01*
X99314286Y-79550057D02*
X99361905Y-79502438D01*
X99361905Y-79502438D02*
X99457143Y-79454819D01*
X99457143Y-79454819D02*
X99695238Y-79454819D01*
X99695238Y-79454819D02*
X99790476Y-79502438D01*
X99790476Y-79502438D02*
X99838095Y-79550057D01*
X99838095Y-79550057D02*
X99885714Y-79645295D01*
X99885714Y-79645295D02*
X99885714Y-79740533D01*
X99885714Y-79740533D02*
X99838095Y-79883390D01*
X99838095Y-79883390D02*
X99266667Y-80454819D01*
X99266667Y-80454819D02*
X99885714Y-80454819D01*
X131820057Y-118195238D02*
X131772438Y-118290476D01*
X131772438Y-118290476D02*
X131677200Y-118385714D01*
X131677200Y-118385714D02*
X131534342Y-118528571D01*
X131534342Y-118528571D02*
X131486723Y-118623809D01*
X131486723Y-118623809D02*
X131486723Y-118719047D01*
X131724819Y-118671428D02*
X131677200Y-118766666D01*
X131677200Y-118766666D02*
X131581961Y-118861904D01*
X131581961Y-118861904D02*
X131391485Y-118909523D01*
X131391485Y-118909523D02*
X131058152Y-118909523D01*
X131058152Y-118909523D02*
X130867676Y-118861904D01*
X130867676Y-118861904D02*
X130772438Y-118766666D01*
X130772438Y-118766666D02*
X130724819Y-118671428D01*
X130724819Y-118671428D02*
X130724819Y-118480952D01*
X130724819Y-118480952D02*
X130772438Y-118385714D01*
X130772438Y-118385714D02*
X130867676Y-118290476D01*
X130867676Y-118290476D02*
X131058152Y-118242857D01*
X131058152Y-118242857D02*
X131391485Y-118242857D01*
X131391485Y-118242857D02*
X131581961Y-118290476D01*
X131581961Y-118290476D02*
X131677200Y-118385714D01*
X131677200Y-118385714D02*
X131724819Y-118480952D01*
X131724819Y-118480952D02*
X131724819Y-118671428D01*
X131724819Y-117290476D02*
X131724819Y-117861904D01*
X131724819Y-117576190D02*
X130724819Y-117576190D01*
X130724819Y-117576190D02*
X130867676Y-117671428D01*
X130867676Y-117671428D02*
X130962914Y-117766666D01*
X130962914Y-117766666D02*
X131010533Y-117861904D01*
X95838095Y-68854819D02*
X95838095Y-69664342D01*
X95838095Y-69664342D02*
X95885714Y-69759580D01*
X95885714Y-69759580D02*
X95933333Y-69807200D01*
X95933333Y-69807200D02*
X96028571Y-69854819D01*
X96028571Y-69854819D02*
X96219047Y-69854819D01*
X96219047Y-69854819D02*
X96314285Y-69807200D01*
X96314285Y-69807200D02*
X96361904Y-69759580D01*
X96361904Y-69759580D02*
X96409523Y-69664342D01*
X96409523Y-69664342D02*
X96409523Y-68854819D01*
X96790476Y-68854819D02*
X97409523Y-68854819D01*
X97409523Y-68854819D02*
X97076190Y-69235771D01*
X97076190Y-69235771D02*
X97219047Y-69235771D01*
X97219047Y-69235771D02*
X97314285Y-69283390D01*
X97314285Y-69283390D02*
X97361904Y-69331009D01*
X97361904Y-69331009D02*
X97409523Y-69426247D01*
X97409523Y-69426247D02*
X97409523Y-69664342D01*
X97409523Y-69664342D02*
X97361904Y-69759580D01*
X97361904Y-69759580D02*
X97314285Y-69807200D01*
X97314285Y-69807200D02*
X97219047Y-69854819D01*
X97219047Y-69854819D02*
X96933333Y-69854819D01*
X96933333Y-69854819D02*
X96838095Y-69807200D01*
X96838095Y-69807200D02*
X96790476Y-69759580D01*
X139814819Y-99011494D02*
X138814819Y-99011494D01*
X139814819Y-98440066D02*
X139243390Y-98868637D01*
X138814819Y-98440066D02*
X139386247Y-99011494D01*
X139814819Y-97487685D02*
X139814819Y-98059113D01*
X139814819Y-97773399D02*
X138814819Y-97773399D01*
X138814819Y-97773399D02*
X138957676Y-97868637D01*
X138957676Y-97868637D02*
X139052914Y-97963875D01*
X139052914Y-97963875D02*
X139100533Y-98059113D01*
X159258095Y-62334819D02*
X159258095Y-63144342D01*
X159258095Y-63144342D02*
X159305714Y-63239580D01*
X159305714Y-63239580D02*
X159353333Y-63287200D01*
X159353333Y-63287200D02*
X159448571Y-63334819D01*
X159448571Y-63334819D02*
X159639047Y-63334819D01*
X159639047Y-63334819D02*
X159734285Y-63287200D01*
X159734285Y-63287200D02*
X159781904Y-63239580D01*
X159781904Y-63239580D02*
X159829523Y-63144342D01*
X159829523Y-63144342D02*
X159829523Y-62334819D01*
X160829523Y-63334819D02*
X160258095Y-63334819D01*
X160543809Y-63334819D02*
X160543809Y-62334819D01*
X160543809Y-62334819D02*
X160448571Y-62477676D01*
X160448571Y-62477676D02*
X160353333Y-62572914D01*
X160353333Y-62572914D02*
X160258095Y-62620533D01*
X164130057Y-129625238D02*
X164082438Y-129720476D01*
X164082438Y-129720476D02*
X163987200Y-129815714D01*
X163987200Y-129815714D02*
X163844342Y-129958571D01*
X163844342Y-129958571D02*
X163796723Y-130053809D01*
X163796723Y-130053809D02*
X163796723Y-130149047D01*
X164034819Y-130101428D02*
X163987200Y-130196666D01*
X163987200Y-130196666D02*
X163891961Y-130291904D01*
X163891961Y-130291904D02*
X163701485Y-130339523D01*
X163701485Y-130339523D02*
X163368152Y-130339523D01*
X163368152Y-130339523D02*
X163177676Y-130291904D01*
X163177676Y-130291904D02*
X163082438Y-130196666D01*
X163082438Y-130196666D02*
X163034819Y-130101428D01*
X163034819Y-130101428D02*
X163034819Y-129910952D01*
X163034819Y-129910952D02*
X163082438Y-129815714D01*
X163082438Y-129815714D02*
X163177676Y-129720476D01*
X163177676Y-129720476D02*
X163368152Y-129672857D01*
X163368152Y-129672857D02*
X163701485Y-129672857D01*
X163701485Y-129672857D02*
X163891961Y-129720476D01*
X163891961Y-129720476D02*
X163987200Y-129815714D01*
X163987200Y-129815714D02*
X164034819Y-129910952D01*
X164034819Y-129910952D02*
X164034819Y-130101428D01*
X163130057Y-129291904D02*
X163082438Y-129244285D01*
X163082438Y-129244285D02*
X163034819Y-129149047D01*
X163034819Y-129149047D02*
X163034819Y-128910952D01*
X163034819Y-128910952D02*
X163082438Y-128815714D01*
X163082438Y-128815714D02*
X163130057Y-128768095D01*
X163130057Y-128768095D02*
X163225295Y-128720476D01*
X163225295Y-128720476D02*
X163320533Y-128720476D01*
X163320533Y-128720476D02*
X163463390Y-128768095D01*
X163463390Y-128768095D02*
X164034819Y-129339523D01*
X164034819Y-129339523D02*
X164034819Y-128720476D01*
X124744819Y-56046666D02*
X124268628Y-56379999D01*
X124744819Y-56618094D02*
X123744819Y-56618094D01*
X123744819Y-56618094D02*
X123744819Y-56237142D01*
X123744819Y-56237142D02*
X123792438Y-56141904D01*
X123792438Y-56141904D02*
X123840057Y-56094285D01*
X123840057Y-56094285D02*
X123935295Y-56046666D01*
X123935295Y-56046666D02*
X124078152Y-56046666D01*
X124078152Y-56046666D02*
X124173390Y-56094285D01*
X124173390Y-56094285D02*
X124221009Y-56141904D01*
X124221009Y-56141904D02*
X124268628Y-56237142D01*
X124268628Y-56237142D02*
X124268628Y-56618094D01*
X124744819Y-55094285D02*
X124744819Y-55665713D01*
X124744819Y-55379999D02*
X123744819Y-55379999D01*
X123744819Y-55379999D02*
X123887676Y-55475237D01*
X123887676Y-55475237D02*
X123982914Y-55570475D01*
X123982914Y-55570475D02*
X124030533Y-55665713D01*
X71934819Y-54933333D02*
X72649104Y-54933333D01*
X72649104Y-54933333D02*
X72791961Y-54980952D01*
X72791961Y-54980952D02*
X72887200Y-55076190D01*
X72887200Y-55076190D02*
X72934819Y-55219047D01*
X72934819Y-55219047D02*
X72934819Y-55314285D01*
X72934819Y-53933333D02*
X72934819Y-54504761D01*
X72934819Y-54219047D02*
X71934819Y-54219047D01*
X71934819Y-54219047D02*
X72077676Y-54314285D01*
X72077676Y-54314285D02*
X72172914Y-54409523D01*
X72172914Y-54409523D02*
X72220533Y-54504761D01*
X96473333Y-59999580D02*
X96425714Y-60047200D01*
X96425714Y-60047200D02*
X96282857Y-60094819D01*
X96282857Y-60094819D02*
X96187619Y-60094819D01*
X96187619Y-60094819D02*
X96044762Y-60047200D01*
X96044762Y-60047200D02*
X95949524Y-59951961D01*
X95949524Y-59951961D02*
X95901905Y-59856723D01*
X95901905Y-59856723D02*
X95854286Y-59666247D01*
X95854286Y-59666247D02*
X95854286Y-59523390D01*
X95854286Y-59523390D02*
X95901905Y-59332914D01*
X95901905Y-59332914D02*
X95949524Y-59237676D01*
X95949524Y-59237676D02*
X96044762Y-59142438D01*
X96044762Y-59142438D02*
X96187619Y-59094819D01*
X96187619Y-59094819D02*
X96282857Y-59094819D01*
X96282857Y-59094819D02*
X96425714Y-59142438D01*
X96425714Y-59142438D02*
X96473333Y-59190057D01*
X97330476Y-59428152D02*
X97330476Y-60094819D01*
X97092381Y-59047200D02*
X96854286Y-59761485D01*
X96854286Y-59761485D02*
X97473333Y-59761485D01*
X114924819Y-120806666D02*
X114448628Y-121139999D01*
X114924819Y-121378094D02*
X113924819Y-121378094D01*
X113924819Y-121378094D02*
X113924819Y-120997142D01*
X113924819Y-120997142D02*
X113972438Y-120901904D01*
X113972438Y-120901904D02*
X114020057Y-120854285D01*
X114020057Y-120854285D02*
X114115295Y-120806666D01*
X114115295Y-120806666D02*
X114258152Y-120806666D01*
X114258152Y-120806666D02*
X114353390Y-120854285D01*
X114353390Y-120854285D02*
X114401009Y-120901904D01*
X114401009Y-120901904D02*
X114448628Y-120997142D01*
X114448628Y-120997142D02*
X114448628Y-121378094D01*
X114258152Y-119949523D02*
X114924819Y-119949523D01*
X113877200Y-120187618D02*
X114591485Y-120425713D01*
X114591485Y-120425713D02*
X114591485Y-119806666D01*
X90103333Y-81039580D02*
X90055714Y-81087200D01*
X90055714Y-81087200D02*
X89912857Y-81134819D01*
X89912857Y-81134819D02*
X89817619Y-81134819D01*
X89817619Y-81134819D02*
X89674762Y-81087200D01*
X89674762Y-81087200D02*
X89579524Y-80991961D01*
X89579524Y-80991961D02*
X89531905Y-80896723D01*
X89531905Y-80896723D02*
X89484286Y-80706247D01*
X89484286Y-80706247D02*
X89484286Y-80563390D01*
X89484286Y-80563390D02*
X89531905Y-80372914D01*
X89531905Y-80372914D02*
X89579524Y-80277676D01*
X89579524Y-80277676D02*
X89674762Y-80182438D01*
X89674762Y-80182438D02*
X89817619Y-80134819D01*
X89817619Y-80134819D02*
X89912857Y-80134819D01*
X89912857Y-80134819D02*
X90055714Y-80182438D01*
X90055714Y-80182438D02*
X90103333Y-80230057D01*
X90436667Y-80134819D02*
X91055714Y-80134819D01*
X91055714Y-80134819D02*
X90722381Y-80515771D01*
X90722381Y-80515771D02*
X90865238Y-80515771D01*
X90865238Y-80515771D02*
X90960476Y-80563390D01*
X90960476Y-80563390D02*
X91008095Y-80611009D01*
X91008095Y-80611009D02*
X91055714Y-80706247D01*
X91055714Y-80706247D02*
X91055714Y-80944342D01*
X91055714Y-80944342D02*
X91008095Y-81039580D01*
X91008095Y-81039580D02*
X90960476Y-81087200D01*
X90960476Y-81087200D02*
X90865238Y-81134819D01*
X90865238Y-81134819D02*
X90579524Y-81134819D01*
X90579524Y-81134819D02*
X90484286Y-81087200D01*
X90484286Y-81087200D02*
X90436667Y-81039580D01*
X153721905Y-117864819D02*
X153721905Y-116864819D01*
X153721905Y-116864819D02*
X153960000Y-116864819D01*
X153960000Y-116864819D02*
X154102857Y-116912438D01*
X154102857Y-116912438D02*
X154198095Y-117007676D01*
X154198095Y-117007676D02*
X154245714Y-117102914D01*
X154245714Y-117102914D02*
X154293333Y-117293390D01*
X154293333Y-117293390D02*
X154293333Y-117436247D01*
X154293333Y-117436247D02*
X154245714Y-117626723D01*
X154245714Y-117626723D02*
X154198095Y-117721961D01*
X154198095Y-117721961D02*
X154102857Y-117817200D01*
X154102857Y-117817200D02*
X153960000Y-117864819D01*
X153960000Y-117864819D02*
X153721905Y-117864819D01*
X155245714Y-117864819D02*
X154674286Y-117864819D01*
X154960000Y-117864819D02*
X154960000Y-116864819D01*
X154960000Y-116864819D02*
X154864762Y-117007676D01*
X154864762Y-117007676D02*
X154769524Y-117102914D01*
X154769524Y-117102914D02*
X154674286Y-117150533D01*
X149118095Y-118234819D02*
X149118095Y-117234819D01*
X149689523Y-118234819D02*
X149260952Y-117663390D01*
X149689523Y-117234819D02*
X149118095Y-117806247D01*
X81544819Y-113781904D02*
X82354342Y-113781904D01*
X82354342Y-113781904D02*
X82449580Y-113734285D01*
X82449580Y-113734285D02*
X82497200Y-113686666D01*
X82497200Y-113686666D02*
X82544819Y-113591428D01*
X82544819Y-113591428D02*
X82544819Y-113400952D01*
X82544819Y-113400952D02*
X82497200Y-113305714D01*
X82497200Y-113305714D02*
X82449580Y-113258095D01*
X82449580Y-113258095D02*
X82354342Y-113210476D01*
X82354342Y-113210476D02*
X81544819Y-113210476D01*
X81640057Y-112781904D02*
X81592438Y-112734285D01*
X81592438Y-112734285D02*
X81544819Y-112639047D01*
X81544819Y-112639047D02*
X81544819Y-112400952D01*
X81544819Y-112400952D02*
X81592438Y-112305714D01*
X81592438Y-112305714D02*
X81640057Y-112258095D01*
X81640057Y-112258095D02*
X81735295Y-112210476D01*
X81735295Y-112210476D02*
X81830533Y-112210476D01*
X81830533Y-112210476D02*
X81973390Y-112258095D01*
X81973390Y-112258095D02*
X82544819Y-112829523D01*
X82544819Y-112829523D02*
X82544819Y-112210476D01*
X96393333Y-62619580D02*
X96345714Y-62667200D01*
X96345714Y-62667200D02*
X96202857Y-62714819D01*
X96202857Y-62714819D02*
X96107619Y-62714819D01*
X96107619Y-62714819D02*
X95964762Y-62667200D01*
X95964762Y-62667200D02*
X95869524Y-62571961D01*
X95869524Y-62571961D02*
X95821905Y-62476723D01*
X95821905Y-62476723D02*
X95774286Y-62286247D01*
X95774286Y-62286247D02*
X95774286Y-62143390D01*
X95774286Y-62143390D02*
X95821905Y-61952914D01*
X95821905Y-61952914D02*
X95869524Y-61857676D01*
X95869524Y-61857676D02*
X95964762Y-61762438D01*
X95964762Y-61762438D02*
X96107619Y-61714819D01*
X96107619Y-61714819D02*
X96202857Y-61714819D01*
X96202857Y-61714819D02*
X96345714Y-61762438D01*
X96345714Y-61762438D02*
X96393333Y-61810057D01*
X97298095Y-61714819D02*
X96821905Y-61714819D01*
X96821905Y-61714819D02*
X96774286Y-62191009D01*
X96774286Y-62191009D02*
X96821905Y-62143390D01*
X96821905Y-62143390D02*
X96917143Y-62095771D01*
X96917143Y-62095771D02*
X97155238Y-62095771D01*
X97155238Y-62095771D02*
X97250476Y-62143390D01*
X97250476Y-62143390D02*
X97298095Y-62191009D01*
X97298095Y-62191009D02*
X97345714Y-62286247D01*
X97345714Y-62286247D02*
X97345714Y-62524342D01*
X97345714Y-62524342D02*
X97298095Y-62619580D01*
X97298095Y-62619580D02*
X97250476Y-62667200D01*
X97250476Y-62667200D02*
X97155238Y-62714819D01*
X97155238Y-62714819D02*
X96917143Y-62714819D01*
X96917143Y-62714819D02*
X96821905Y-62667200D01*
X96821905Y-62667200D02*
X96774286Y-62619580D01*
X118608095Y-76704819D02*
X118608095Y-77514342D01*
X118608095Y-77514342D02*
X118655714Y-77609580D01*
X118655714Y-77609580D02*
X118703333Y-77657200D01*
X118703333Y-77657200D02*
X118798571Y-77704819D01*
X118798571Y-77704819D02*
X118989047Y-77704819D01*
X118989047Y-77704819D02*
X119084285Y-77657200D01*
X119084285Y-77657200D02*
X119131904Y-77609580D01*
X119131904Y-77609580D02*
X119179523Y-77514342D01*
X119179523Y-77514342D02*
X119179523Y-76704819D01*
X120084285Y-77038152D02*
X120084285Y-77704819D01*
X119846190Y-76657200D02*
X119608095Y-77371485D01*
X119608095Y-77371485D02*
X120227142Y-77371485D01*
X185086666Y-111294819D02*
X185086666Y-112009104D01*
X185086666Y-112009104D02*
X185039047Y-112151961D01*
X185039047Y-112151961D02*
X184943809Y-112247200D01*
X184943809Y-112247200D02*
X184800952Y-112294819D01*
X184800952Y-112294819D02*
X184705714Y-112294819D01*
X185991428Y-111628152D02*
X185991428Y-112294819D01*
X185753333Y-111247200D02*
X185515238Y-111961485D01*
X185515238Y-111961485D02*
X186134285Y-111961485D01*
X135723333Y-63784819D02*
X135390000Y-63308628D01*
X135151905Y-63784819D02*
X135151905Y-62784819D01*
X135151905Y-62784819D02*
X135532857Y-62784819D01*
X135532857Y-62784819D02*
X135628095Y-62832438D01*
X135628095Y-62832438D02*
X135675714Y-62880057D01*
X135675714Y-62880057D02*
X135723333Y-62975295D01*
X135723333Y-62975295D02*
X135723333Y-63118152D01*
X135723333Y-63118152D02*
X135675714Y-63213390D01*
X135675714Y-63213390D02*
X135628095Y-63261009D01*
X135628095Y-63261009D02*
X135532857Y-63308628D01*
X135532857Y-63308628D02*
X135151905Y-63308628D01*
X136104286Y-62880057D02*
X136151905Y-62832438D01*
X136151905Y-62832438D02*
X136247143Y-62784819D01*
X136247143Y-62784819D02*
X136485238Y-62784819D01*
X136485238Y-62784819D02*
X136580476Y-62832438D01*
X136580476Y-62832438D02*
X136628095Y-62880057D01*
X136628095Y-62880057D02*
X136675714Y-62975295D01*
X136675714Y-62975295D02*
X136675714Y-63070533D01*
X136675714Y-63070533D02*
X136628095Y-63213390D01*
X136628095Y-63213390D02*
X136056667Y-63784819D01*
X136056667Y-63784819D02*
X136675714Y-63784819D01*
X159424761Y-80314819D02*
X159091428Y-79838628D01*
X158853333Y-80314819D02*
X158853333Y-79314819D01*
X158853333Y-79314819D02*
X159234285Y-79314819D01*
X159234285Y-79314819D02*
X159329523Y-79362438D01*
X159329523Y-79362438D02*
X159377142Y-79410057D01*
X159377142Y-79410057D02*
X159424761Y-79505295D01*
X159424761Y-79505295D02*
X159424761Y-79648152D01*
X159424761Y-79648152D02*
X159377142Y-79743390D01*
X159377142Y-79743390D02*
X159329523Y-79791009D01*
X159329523Y-79791009D02*
X159234285Y-79838628D01*
X159234285Y-79838628D02*
X158853333Y-79838628D01*
X159710476Y-79314819D02*
X160043809Y-80314819D01*
X160043809Y-80314819D02*
X160377142Y-79314819D01*
X161234285Y-80314819D02*
X160662857Y-80314819D01*
X160948571Y-80314819D02*
X160948571Y-79314819D01*
X160948571Y-79314819D02*
X160853333Y-79457676D01*
X160853333Y-79457676D02*
X160758095Y-79552914D01*
X160758095Y-79552914D02*
X160662857Y-79600533D01*
X179526666Y-85134819D02*
X179526666Y-85849104D01*
X179526666Y-85849104D02*
X179479047Y-85991961D01*
X179479047Y-85991961D02*
X179383809Y-86087200D01*
X179383809Y-86087200D02*
X179240952Y-86134819D01*
X179240952Y-86134819D02*
X179145714Y-86134819D01*
X179907619Y-85134819D02*
X180526666Y-85134819D01*
X180526666Y-85134819D02*
X180193333Y-85515771D01*
X180193333Y-85515771D02*
X180336190Y-85515771D01*
X180336190Y-85515771D02*
X180431428Y-85563390D01*
X180431428Y-85563390D02*
X180479047Y-85611009D01*
X180479047Y-85611009D02*
X180526666Y-85706247D01*
X180526666Y-85706247D02*
X180526666Y-85944342D01*
X180526666Y-85944342D02*
X180479047Y-86039580D01*
X180479047Y-86039580D02*
X180431428Y-86087200D01*
X180431428Y-86087200D02*
X180336190Y-86134819D01*
X180336190Y-86134819D02*
X180050476Y-86134819D01*
X180050476Y-86134819D02*
X179955238Y-86087200D01*
X179955238Y-86087200D02*
X179907619Y-86039580D01*
D11*
%TO.C,R3*%
X121380000Y-90270000D02*
X114840000Y-90270000D01*
X121380000Y-89940000D02*
X121380000Y-90270000D01*
X121380000Y-87860000D02*
X121380000Y-87530000D01*
X121380000Y-87530000D02*
X114840000Y-87530000D01*
X114840000Y-90270000D02*
X114840000Y-89940000D01*
X114840000Y-87530000D02*
X114840000Y-87860000D01*
%TO.C,J2*%
X192713469Y-68412500D02*
X193453469Y-68412500D01*
X193453469Y-68412500D02*
X193453469Y-67912500D01*
X183292469Y-68172500D02*
X193213469Y-68172500D01*
X183292469Y-68172500D02*
X183292469Y-57892500D01*
X186252469Y-68172500D02*
X186252469Y-57892500D01*
X191153469Y-68172500D02*
X191153469Y-57892500D01*
X192653469Y-68172500D02*
X192653469Y-57892500D01*
X193213469Y-68172500D02*
X193213469Y-57892500D01*
X189576469Y-61719500D02*
X189622469Y-61766500D01*
X189792469Y-61526500D02*
X189827469Y-61561500D01*
X187278469Y-59422500D02*
X187314469Y-59457500D01*
X187484469Y-59217500D02*
X187530469Y-59264500D01*
X183292469Y-57892500D02*
X193213469Y-57892500D01*
X187869470Y-67107499D02*
G75*
G03*
X189236511Y-67107926I684000J1534992D01*
G01*
X187018470Y-64888501D02*
G75*
G03*
X187018043Y-66255542I1534992J-684000D01*
G01*
X190088468Y-66256500D02*
G75*
G03*
X190233721Y-65543695I-1535000J683999D01*
G01*
X190233468Y-65572500D02*
G75*
G03*
X190088224Y-64889182I-1679999J0D01*
G01*
X189237469Y-64037500D02*
G75*
G03*
X187870427Y-64037074I-684000J-1535000D01*
G01*
X190233469Y-60492500D02*
G75*
G03*
X186873469Y-60492500I-1680000J0D01*
G01*
X186873469Y-60492500D02*
G75*
G03*
X190233469Y-60492500I1680000J0D01*
G01*
%TO.C,C1*%
X76529759Y-83241000D02*
X77159759Y-83241000D01*
X76844759Y-82926000D02*
X76844759Y-83556000D01*
X80030000Y-81850000D02*
X80030000Y-88310000D01*
X80070000Y-81850000D02*
X80070000Y-88310000D01*
X80110000Y-81850000D02*
X80110000Y-88310000D01*
X80150000Y-81852000D02*
X80150000Y-88308000D01*
X80190000Y-81853000D02*
X80190000Y-88307000D01*
X80230000Y-81856000D02*
X80230000Y-88304000D01*
X80270000Y-81858000D02*
X80270000Y-84040000D01*
X80270000Y-86120000D02*
X80270000Y-88302000D01*
X80310000Y-81862000D02*
X80310000Y-84040000D01*
X80310000Y-86120000D02*
X80310000Y-88298000D01*
X80350000Y-81865000D02*
X80350000Y-84040000D01*
X80350000Y-86120000D02*
X80350000Y-88295000D01*
X80390000Y-81869000D02*
X80390000Y-84040000D01*
X80390000Y-86120000D02*
X80390000Y-88291000D01*
X80430000Y-81874000D02*
X80430000Y-84040000D01*
X80430000Y-86120000D02*
X80430000Y-88286000D01*
X80470000Y-81879000D02*
X80470000Y-84040000D01*
X80470000Y-86120000D02*
X80470000Y-88281000D01*
X80510000Y-81885000D02*
X80510000Y-84040000D01*
X80510000Y-86120000D02*
X80510000Y-88275000D01*
X80550000Y-81891000D02*
X80550000Y-84040000D01*
X80550000Y-86120000D02*
X80550000Y-88269000D01*
X80590000Y-81898000D02*
X80590000Y-84040000D01*
X80590000Y-86120000D02*
X80590000Y-88262000D01*
X80630000Y-81905000D02*
X80630000Y-84040000D01*
X80630000Y-86120000D02*
X80630000Y-88255000D01*
X80670000Y-81913000D02*
X80670000Y-84040000D01*
X80670000Y-86120000D02*
X80670000Y-88247000D01*
X80710000Y-81921000D02*
X80710000Y-84040000D01*
X80710000Y-86120000D02*
X80710000Y-88239000D01*
X80751000Y-81930000D02*
X80751000Y-84040000D01*
X80751000Y-86120000D02*
X80751000Y-88230000D01*
X80791000Y-81939000D02*
X80791000Y-84040000D01*
X80791000Y-86120000D02*
X80791000Y-88221000D01*
X80831000Y-81949000D02*
X80831000Y-84040000D01*
X80831000Y-86120000D02*
X80831000Y-88211000D01*
X80871000Y-81959000D02*
X80871000Y-84040000D01*
X80871000Y-86120000D02*
X80871000Y-88201000D01*
X80911000Y-81970000D02*
X80911000Y-84040000D01*
X80911000Y-86120000D02*
X80911000Y-88190000D01*
X80951000Y-81982000D02*
X80951000Y-84040000D01*
X80951000Y-86120000D02*
X80951000Y-88178000D01*
X80991000Y-81994000D02*
X80991000Y-84040000D01*
X80991000Y-86120000D02*
X80991000Y-88166000D01*
X81031000Y-82006000D02*
X81031000Y-84040000D01*
X81031000Y-86120000D02*
X81031000Y-88154000D01*
X81071000Y-82019000D02*
X81071000Y-84040000D01*
X81071000Y-86120000D02*
X81071000Y-88141000D01*
X81111000Y-82033000D02*
X81111000Y-84040000D01*
X81111000Y-86120000D02*
X81111000Y-88127000D01*
X81151000Y-82047000D02*
X81151000Y-84040000D01*
X81151000Y-86120000D02*
X81151000Y-88113000D01*
X81191000Y-82062000D02*
X81191000Y-84040000D01*
X81191000Y-86120000D02*
X81191000Y-88098000D01*
X81231000Y-82078000D02*
X81231000Y-84040000D01*
X81231000Y-86120000D02*
X81231000Y-88082000D01*
X81271000Y-82094000D02*
X81271000Y-84040000D01*
X81271000Y-86120000D02*
X81271000Y-88066000D01*
X81311000Y-82110000D02*
X81311000Y-84040000D01*
X81311000Y-86120000D02*
X81311000Y-88050000D01*
X81351000Y-82128000D02*
X81351000Y-84040000D01*
X81351000Y-86120000D02*
X81351000Y-88032000D01*
X81391000Y-82146000D02*
X81391000Y-84040000D01*
X81391000Y-86120000D02*
X81391000Y-88014000D01*
X81431000Y-82164000D02*
X81431000Y-84040000D01*
X81431000Y-86120000D02*
X81431000Y-87996000D01*
X81471000Y-82184000D02*
X81471000Y-84040000D01*
X81471000Y-86120000D02*
X81471000Y-87976000D01*
X81511000Y-82204000D02*
X81511000Y-84040000D01*
X81511000Y-86120000D02*
X81511000Y-87956000D01*
X81551000Y-82224000D02*
X81551000Y-84040000D01*
X81551000Y-86120000D02*
X81551000Y-87936000D01*
X81591000Y-82246000D02*
X81591000Y-84040000D01*
X81591000Y-86120000D02*
X81591000Y-87914000D01*
X81631000Y-82268000D02*
X81631000Y-84040000D01*
X81631000Y-86120000D02*
X81631000Y-87892000D01*
X81671000Y-82290000D02*
X81671000Y-84040000D01*
X81671000Y-86120000D02*
X81671000Y-87870000D01*
X81711000Y-82314000D02*
X81711000Y-84040000D01*
X81711000Y-86120000D02*
X81711000Y-87846000D01*
X81751000Y-82338000D02*
X81751000Y-84040000D01*
X81751000Y-86120000D02*
X81751000Y-87822000D01*
X81791000Y-82364000D02*
X81791000Y-84040000D01*
X81791000Y-86120000D02*
X81791000Y-87796000D01*
X81831000Y-82390000D02*
X81831000Y-84040000D01*
X81831000Y-86120000D02*
X81831000Y-87770000D01*
X81871000Y-82416000D02*
X81871000Y-84040000D01*
X81871000Y-86120000D02*
X81871000Y-87744000D01*
X81911000Y-82444000D02*
X81911000Y-84040000D01*
X81911000Y-86120000D02*
X81911000Y-87716000D01*
X81951000Y-82473000D02*
X81951000Y-84040000D01*
X81951000Y-86120000D02*
X81951000Y-87687000D01*
X81991000Y-82502000D02*
X81991000Y-84040000D01*
X81991000Y-86120000D02*
X81991000Y-87658000D01*
X82031000Y-82532000D02*
X82031000Y-84040000D01*
X82031000Y-86120000D02*
X82031000Y-87628000D01*
X82071000Y-82564000D02*
X82071000Y-84040000D01*
X82071000Y-86120000D02*
X82071000Y-87596000D01*
X82111000Y-82596000D02*
X82111000Y-84040000D01*
X82111000Y-86120000D02*
X82111000Y-87564000D01*
X82151000Y-82630000D02*
X82151000Y-84040000D01*
X82151000Y-86120000D02*
X82151000Y-87530000D01*
X82191000Y-82664000D02*
X82191000Y-84040000D01*
X82191000Y-86120000D02*
X82191000Y-87496000D01*
X82231000Y-82700000D02*
X82231000Y-84040000D01*
X82231000Y-86120000D02*
X82231000Y-87460000D01*
X82271000Y-82737000D02*
X82271000Y-84040000D01*
X82271000Y-86120000D02*
X82271000Y-87423000D01*
X82311000Y-82775000D02*
X82311000Y-84040000D01*
X82311000Y-86120000D02*
X82311000Y-87385000D01*
X82351000Y-82815000D02*
X82351000Y-87345000D01*
X82391000Y-82856000D02*
X82391000Y-87304000D01*
X82431000Y-82898000D02*
X82431000Y-87262000D01*
X82471000Y-82943000D02*
X82471000Y-87217000D01*
X82511000Y-82988000D02*
X82511000Y-87172000D01*
X82551000Y-83036000D02*
X82551000Y-87124000D01*
X82591000Y-83085000D02*
X82591000Y-87075000D01*
X82631000Y-83136000D02*
X82631000Y-87024000D01*
X82671000Y-83190000D02*
X82671000Y-86970000D01*
X82711000Y-83246000D02*
X82711000Y-86914000D01*
X82751000Y-83304000D02*
X82751000Y-86856000D01*
X82791000Y-83366000D02*
X82791000Y-86794000D01*
X82831000Y-83430000D02*
X82831000Y-86730000D01*
X82871000Y-83499000D02*
X82871000Y-86661000D01*
X82911000Y-83571000D02*
X82911000Y-86589000D01*
X82951000Y-83648000D02*
X82951000Y-86512000D01*
X82991000Y-83730000D02*
X82991000Y-86430000D01*
X83031000Y-83818000D02*
X83031000Y-86342000D01*
X83071000Y-83915000D02*
X83071000Y-86245000D01*
X83111000Y-84021000D02*
X83111000Y-86139000D01*
X83151000Y-84140000D02*
X83151000Y-86020000D01*
X83191000Y-84278000D02*
X83191000Y-85882000D01*
X83231000Y-84447000D02*
X83231000Y-85713000D01*
X83271000Y-84678000D02*
X83271000Y-85482000D01*
X83300000Y-85080000D02*
G75*
G03*
X76760000Y-85080000I-3270000J0D01*
G01*
X76760000Y-85080000D02*
G75*
G03*
X83300000Y-85080000I3270000J0D01*
G01*
%TO.C,C2*%
X95480000Y-81170000D02*
X95480000Y-83910000D01*
X95480000Y-81170000D02*
X102720000Y-81170000D01*
X95480000Y-83910000D02*
X102720000Y-83910000D01*
X102720000Y-81170000D02*
X102720000Y-83910000D01*
%TO.C,Q1*%
X130270000Y-112980000D02*
X125629000Y-112980000D01*
X130270000Y-112980000D02*
X130270000Y-123220000D01*
X128760000Y-112980000D02*
X128760000Y-123220000D01*
X125629000Y-112980000D02*
X125629000Y-123220000D01*
X130270000Y-116250000D02*
X128760000Y-116250000D01*
X130270000Y-119951000D02*
X128760000Y-119951000D01*
X130270000Y-123220000D02*
X125629000Y-123220000D01*
%TO.C,U3*%
X91480000Y-71650000D02*
X91480000Y-76291000D01*
X91480000Y-71650000D02*
X101720000Y-71650000D01*
X91480000Y-73160000D02*
X101720000Y-73160000D01*
X91480000Y-76291000D02*
X101720000Y-76291000D01*
X94750000Y-71650000D02*
X94750000Y-73160000D01*
X98451000Y-71650000D02*
X98451000Y-73160000D01*
X101720000Y-71650000D02*
X101720000Y-76291000D01*
%TO.C,K1*%
X143720000Y-114510000D02*
X161800000Y-114510000D01*
X142850000Y-113640000D02*
X142850000Y-100960000D01*
X162670000Y-113640000D02*
X162670000Y-95960000D01*
X148554600Y-106376000D02*
X148554600Y-105106000D01*
X151882000Y-105106000D02*
X148554600Y-105106000D01*
X158765400Y-105106000D02*
X158765400Y-106376000D01*
X158765397Y-105105998D02*
X155437997Y-105105998D01*
X141220000Y-100310000D02*
X142200000Y-100310000D01*
X140350000Y-99440000D02*
X140350000Y-83360000D01*
X163320000Y-95310000D02*
X167100000Y-95310000D01*
X167970000Y-94440000D02*
X167970000Y-83360000D01*
X155438000Y-92700000D02*
X155438000Y-91136000D01*
X160264000Y-92700000D02*
X155438000Y-92700000D01*
X154676000Y-91136000D02*
X156200000Y-91136000D01*
X156200000Y-91136000D02*
X155438000Y-90120000D01*
X155438000Y-90120000D02*
X154676000Y-91136000D01*
X144760000Y-88850000D02*
X144760000Y-92914000D01*
X151120000Y-88850000D02*
X144760000Y-88850000D01*
X151120000Y-88850000D02*
X155692000Y-87630800D01*
X141220000Y-82490000D02*
X167100000Y-82490000D01*
X142850000Y-113640000D02*
G75*
G03*
X143720000Y-114510000I870000J0D01*
G01*
X161800000Y-114510000D02*
G75*
G03*
X162670000Y-113640000I0J870000D01*
G01*
X154421734Y-104598203D02*
G75*
G03*
X155437997Y-105105998I381266J-507797D01*
G01*
X151882000Y-105106000D02*
G75*
G03*
X152898267Y-104598200I635000J0D01*
G01*
X152898000Y-104598001D02*
G75*
G03*
X153659645Y-104597735I381000J-507999D01*
G01*
X153660000Y-104598001D02*
G75*
G03*
X154421644Y-104597734I381000J-507999D01*
G01*
X140350000Y-99440000D02*
G75*
G03*
X141220000Y-100310000I870000J0D01*
G01*
X142850000Y-100960000D02*
G75*
G03*
X142200000Y-100310000I-650000J0D01*
G01*
X163320000Y-95310000D02*
G75*
G03*
X162670000Y-95960000I0J-650000D01*
G01*
X167100000Y-95310000D02*
G75*
G03*
X167970000Y-94440000I0J870000D01*
G01*
X141220000Y-82490000D02*
G75*
G03*
X140350000Y-83360000I0J-870000D01*
G01*
X167970000Y-83360000D02*
G75*
G03*
X167100000Y-82490000I-870000J0D01*
G01*
X151247000Y-88850000D02*
G75*
G03*
X150993000Y-88850000I-127000J0D01*
G01*
X150993000Y-88850000D02*
G75*
G03*
X151247000Y-88850000I127000J0D01*
G01*
%TO.C,U1*%
X162490000Y-62000000D02*
X162490000Y-60880000D01*
X162490000Y-59280000D02*
X162490000Y-59680000D01*
X162490000Y-58080000D02*
X162490000Y-57680000D01*
X162490000Y-55360000D02*
X162490000Y-56480000D01*
X160620000Y-62000000D02*
X162490000Y-62000000D01*
X160620000Y-55360000D02*
X162490000Y-55360000D01*
X157450000Y-62000000D02*
X159320000Y-62000000D01*
X157450000Y-62000000D02*
X157450000Y-61430000D01*
X157450000Y-58430000D02*
X157450000Y-58930000D01*
X157450000Y-55360000D02*
X159320000Y-55360000D01*
X157450000Y-55360000D02*
X157450000Y-55930000D01*
X162720000Y-61160000D02*
X162720000Y-60880000D01*
X163000000Y-60880000D01*
X162720000Y-61160000D01*
G36*
X162720000Y-61160000D02*
G01*
X162720000Y-60880000D01*
X163000000Y-60880000D01*
X162720000Y-61160000D01*
G37*
%TO.C,Q2*%
X158170000Y-127730000D02*
X158170000Y-131330000D01*
X162620000Y-129530000D02*
G75*
G03*
X158181522Y-127691522I-2600000J0D01*
G01*
X158181522Y-131368478D02*
G75*
G03*
X162620000Y-129530000I1838478J1838478D01*
G01*
%TO.C,R1*%
X123290000Y-52610000D02*
X123290000Y-59150000D01*
X122960000Y-52610000D02*
X123290000Y-52610000D01*
X120880000Y-52610000D02*
X120550000Y-52610000D01*
X120550000Y-52610000D02*
X120550000Y-59150000D01*
X123290000Y-59150000D02*
X122960000Y-59150000D01*
X120550000Y-59150000D02*
X120880000Y-59150000D01*
%TO.C,J1*%
X82900000Y-59980000D02*
X83640000Y-59980000D01*
X83640000Y-59980000D02*
X83640000Y-59480000D01*
X73479000Y-59740000D02*
X83400000Y-59740000D01*
X73479000Y-59740000D02*
X73479000Y-49460000D01*
X76439000Y-59740000D02*
X76439000Y-49460000D01*
X81340000Y-59740000D02*
X81340000Y-49460000D01*
X82840000Y-59740000D02*
X82840000Y-49460000D01*
X83400000Y-59740000D02*
X83400000Y-49460000D01*
X79763000Y-53287000D02*
X79809000Y-53334000D01*
X79979000Y-53094000D02*
X80014000Y-53129000D01*
X77465000Y-50990000D02*
X77501000Y-51025000D01*
X77671000Y-50785000D02*
X77717000Y-50832000D01*
X73479000Y-49460000D02*
X83400000Y-49460000D01*
X78056001Y-58674999D02*
G75*
G03*
X79423042Y-58675426I684000J1534992D01*
G01*
X77205001Y-56456001D02*
G75*
G03*
X77204574Y-57823042I1534992J-684000D01*
G01*
X80274999Y-57824000D02*
G75*
G03*
X80420252Y-57111195I-1535000J683999D01*
G01*
X80419999Y-57140000D02*
G75*
G03*
X80274755Y-56456682I-1679999J0D01*
G01*
X79424000Y-55605000D02*
G75*
G03*
X78056958Y-55604574I-684000J-1535000D01*
G01*
X80420000Y-52060000D02*
G75*
G03*
X77060000Y-52060000I-1680000J0D01*
G01*
X77060000Y-52060000D02*
G75*
G03*
X80420000Y-52060000I1680000J0D01*
G01*
%TO.C,C4*%
X100260000Y-58510000D02*
X100260000Y-55770000D01*
X100260000Y-58510000D02*
X93020000Y-58510000D01*
X100260000Y-55770000D02*
X93020000Y-55770000D01*
X93020000Y-58510000D02*
X93020000Y-55770000D01*
%TO.C,R4*%
X115470000Y-123910000D02*
X115470000Y-117370000D01*
X115800000Y-123910000D02*
X115470000Y-123910000D01*
X117880000Y-123910000D02*
X118210000Y-123910000D01*
X118210000Y-123910000D02*
X118210000Y-117370000D01*
X115470000Y-117370000D02*
X115800000Y-117370000D01*
X118210000Y-117370000D02*
X117880000Y-117370000D01*
%TO.C,C3*%
X86769759Y-83241000D02*
X87399759Y-83241000D01*
X87084759Y-82926000D02*
X87084759Y-83556000D01*
X90270000Y-81850000D02*
X90270000Y-88310000D01*
X90310000Y-81850000D02*
X90310000Y-88310000D01*
X90350000Y-81850000D02*
X90350000Y-88310000D01*
X90390000Y-81852000D02*
X90390000Y-88308000D01*
X90430000Y-81853000D02*
X90430000Y-88307000D01*
X90470000Y-81856000D02*
X90470000Y-88304000D01*
X90510000Y-81858000D02*
X90510000Y-84040000D01*
X90510000Y-86120000D02*
X90510000Y-88302000D01*
X90550000Y-81862000D02*
X90550000Y-84040000D01*
X90550000Y-86120000D02*
X90550000Y-88298000D01*
X90590000Y-81865000D02*
X90590000Y-84040000D01*
X90590000Y-86120000D02*
X90590000Y-88295000D01*
X90630000Y-81869000D02*
X90630000Y-84040000D01*
X90630000Y-86120000D02*
X90630000Y-88291000D01*
X90670000Y-81874000D02*
X90670000Y-84040000D01*
X90670000Y-86120000D02*
X90670000Y-88286000D01*
X90710000Y-81879000D02*
X90710000Y-84040000D01*
X90710000Y-86120000D02*
X90710000Y-88281000D01*
X90750000Y-81885000D02*
X90750000Y-84040000D01*
X90750000Y-86120000D02*
X90750000Y-88275000D01*
X90790000Y-81891000D02*
X90790000Y-84040000D01*
X90790000Y-86120000D02*
X90790000Y-88269000D01*
X90830000Y-81898000D02*
X90830000Y-84040000D01*
X90830000Y-86120000D02*
X90830000Y-88262000D01*
X90870000Y-81905000D02*
X90870000Y-84040000D01*
X90870000Y-86120000D02*
X90870000Y-88255000D01*
X90910000Y-81913000D02*
X90910000Y-84040000D01*
X90910000Y-86120000D02*
X90910000Y-88247000D01*
X90950000Y-81921000D02*
X90950000Y-84040000D01*
X90950000Y-86120000D02*
X90950000Y-88239000D01*
X90991000Y-81930000D02*
X90991000Y-84040000D01*
X90991000Y-86120000D02*
X90991000Y-88230000D01*
X91031000Y-81939000D02*
X91031000Y-84040000D01*
X91031000Y-86120000D02*
X91031000Y-88221000D01*
X91071000Y-81949000D02*
X91071000Y-84040000D01*
X91071000Y-86120000D02*
X91071000Y-88211000D01*
X91111000Y-81959000D02*
X91111000Y-84040000D01*
X91111000Y-86120000D02*
X91111000Y-88201000D01*
X91151000Y-81970000D02*
X91151000Y-84040000D01*
X91151000Y-86120000D02*
X91151000Y-88190000D01*
X91191000Y-81982000D02*
X91191000Y-84040000D01*
X91191000Y-86120000D02*
X91191000Y-88178000D01*
X91231000Y-81994000D02*
X91231000Y-84040000D01*
X91231000Y-86120000D02*
X91231000Y-88166000D01*
X91271000Y-82006000D02*
X91271000Y-84040000D01*
X91271000Y-86120000D02*
X91271000Y-88154000D01*
X91311000Y-82019000D02*
X91311000Y-84040000D01*
X91311000Y-86120000D02*
X91311000Y-88141000D01*
X91351000Y-82033000D02*
X91351000Y-84040000D01*
X91351000Y-86120000D02*
X91351000Y-88127000D01*
X91391000Y-82047000D02*
X91391000Y-84040000D01*
X91391000Y-86120000D02*
X91391000Y-88113000D01*
X91431000Y-82062000D02*
X91431000Y-84040000D01*
X91431000Y-86120000D02*
X91431000Y-88098000D01*
X91471000Y-82078000D02*
X91471000Y-84040000D01*
X91471000Y-86120000D02*
X91471000Y-88082000D01*
X91511000Y-82094000D02*
X91511000Y-84040000D01*
X91511000Y-86120000D02*
X91511000Y-88066000D01*
X91551000Y-82110000D02*
X91551000Y-84040000D01*
X91551000Y-86120000D02*
X91551000Y-88050000D01*
X91591000Y-82128000D02*
X91591000Y-84040000D01*
X91591000Y-86120000D02*
X91591000Y-88032000D01*
X91631000Y-82146000D02*
X91631000Y-84040000D01*
X91631000Y-86120000D02*
X91631000Y-88014000D01*
X91671000Y-82164000D02*
X91671000Y-84040000D01*
X91671000Y-86120000D02*
X91671000Y-87996000D01*
X91711000Y-82184000D02*
X91711000Y-84040000D01*
X91711000Y-86120000D02*
X91711000Y-87976000D01*
X91751000Y-82204000D02*
X91751000Y-84040000D01*
X91751000Y-86120000D02*
X91751000Y-87956000D01*
X91791000Y-82224000D02*
X91791000Y-84040000D01*
X91791000Y-86120000D02*
X91791000Y-87936000D01*
X91831000Y-82246000D02*
X91831000Y-84040000D01*
X91831000Y-86120000D02*
X91831000Y-87914000D01*
X91871000Y-82268000D02*
X91871000Y-84040000D01*
X91871000Y-86120000D02*
X91871000Y-87892000D01*
X91911000Y-82290000D02*
X91911000Y-84040000D01*
X91911000Y-86120000D02*
X91911000Y-87870000D01*
X91951000Y-82314000D02*
X91951000Y-84040000D01*
X91951000Y-86120000D02*
X91951000Y-87846000D01*
X91991000Y-82338000D02*
X91991000Y-84040000D01*
X91991000Y-86120000D02*
X91991000Y-87822000D01*
X92031000Y-82364000D02*
X92031000Y-84040000D01*
X92031000Y-86120000D02*
X92031000Y-87796000D01*
X92071000Y-82390000D02*
X92071000Y-84040000D01*
X92071000Y-86120000D02*
X92071000Y-87770000D01*
X92111000Y-82416000D02*
X92111000Y-84040000D01*
X92111000Y-86120000D02*
X92111000Y-87744000D01*
X92151000Y-82444000D02*
X92151000Y-84040000D01*
X92151000Y-86120000D02*
X92151000Y-87716000D01*
X92191000Y-82473000D02*
X92191000Y-84040000D01*
X92191000Y-86120000D02*
X92191000Y-87687000D01*
X92231000Y-82502000D02*
X92231000Y-84040000D01*
X92231000Y-86120000D02*
X92231000Y-87658000D01*
X92271000Y-82532000D02*
X92271000Y-84040000D01*
X92271000Y-86120000D02*
X92271000Y-87628000D01*
X92311000Y-82564000D02*
X92311000Y-84040000D01*
X92311000Y-86120000D02*
X92311000Y-87596000D01*
X92351000Y-82596000D02*
X92351000Y-84040000D01*
X92351000Y-86120000D02*
X92351000Y-87564000D01*
X92391000Y-82630000D02*
X92391000Y-84040000D01*
X92391000Y-86120000D02*
X92391000Y-87530000D01*
X92431000Y-82664000D02*
X92431000Y-84040000D01*
X92431000Y-86120000D02*
X92431000Y-87496000D01*
X92471000Y-82700000D02*
X92471000Y-84040000D01*
X92471000Y-86120000D02*
X92471000Y-87460000D01*
X92511000Y-82737000D02*
X92511000Y-84040000D01*
X92511000Y-86120000D02*
X92511000Y-87423000D01*
X92551000Y-82775000D02*
X92551000Y-84040000D01*
X92551000Y-86120000D02*
X92551000Y-87385000D01*
X92591000Y-82815000D02*
X92591000Y-87345000D01*
X92631000Y-82856000D02*
X92631000Y-87304000D01*
X92671000Y-82898000D02*
X92671000Y-87262000D01*
X92711000Y-82943000D02*
X92711000Y-87217000D01*
X92751000Y-82988000D02*
X92751000Y-87172000D01*
X92791000Y-83036000D02*
X92791000Y-87124000D01*
X92831000Y-83085000D02*
X92831000Y-87075000D01*
X92871000Y-83136000D02*
X92871000Y-87024000D01*
X92911000Y-83190000D02*
X92911000Y-86970000D01*
X92951000Y-83246000D02*
X92951000Y-86914000D01*
X92991000Y-83304000D02*
X92991000Y-86856000D01*
X93031000Y-83366000D02*
X93031000Y-86794000D01*
X93071000Y-83430000D02*
X93071000Y-86730000D01*
X93111000Y-83499000D02*
X93111000Y-86661000D01*
X93151000Y-83571000D02*
X93151000Y-86589000D01*
X93191000Y-83648000D02*
X93191000Y-86512000D01*
X93231000Y-83730000D02*
X93231000Y-86430000D01*
X93271000Y-83818000D02*
X93271000Y-86342000D01*
X93311000Y-83915000D02*
X93311000Y-86245000D01*
X93351000Y-84021000D02*
X93351000Y-86139000D01*
X93391000Y-84140000D02*
X93391000Y-86020000D01*
X93431000Y-84278000D02*
X93431000Y-85882000D01*
X93471000Y-84447000D02*
X93471000Y-85713000D01*
X93511000Y-84678000D02*
X93511000Y-85482000D01*
X93540000Y-85080000D02*
G75*
G03*
X87000000Y-85080000I-3270000J0D01*
G01*
X87000000Y-85080000D02*
G75*
G03*
X93540000Y-85080000I3270000J0D01*
G01*
%TO.C,D1*%
X150720000Y-119880000D02*
X151740000Y-119880000D01*
X151740000Y-118410000D02*
X151740000Y-121350000D01*
X151740000Y-121350000D02*
X157180000Y-121350000D01*
X152520000Y-118410000D02*
X152520000Y-121350000D01*
X152640000Y-118410000D02*
X152640000Y-121350000D01*
X152760000Y-118410000D02*
X152760000Y-121350000D01*
X157180000Y-118410000D02*
X151740000Y-118410000D01*
X157180000Y-121350000D02*
X157180000Y-118410000D01*
X158200000Y-119880000D02*
X157180000Y-119880000D01*
%TO.C,U2*%
X83090000Y-118140000D02*
X87731000Y-118140000D01*
X83090000Y-118140000D02*
X83090000Y-107900000D01*
X84600000Y-118140000D02*
X84600000Y-107900000D01*
X87731000Y-118140000D02*
X87731000Y-107900000D01*
X83090000Y-114870000D02*
X84600000Y-114870000D01*
X83090000Y-111169000D02*
X84600000Y-111169000D01*
X83090000Y-107900000D02*
X87731000Y-107900000D01*
%TO.C,C5*%
X92940000Y-63390000D02*
X92940000Y-66130000D01*
X92940000Y-63390000D02*
X100180000Y-63390000D01*
X92940000Y-66130000D02*
X100180000Y-66130000D01*
X100180000Y-63390000D02*
X100180000Y-66130000D01*
%TO.C,U4*%
X122020000Y-76250000D02*
X122020000Y-65970000D01*
X122020000Y-65970000D02*
X116720000Y-65970000D01*
X120370000Y-76250000D02*
X122020000Y-76250000D01*
X116720000Y-76250000D02*
X118370000Y-76250000D01*
X116720000Y-65970000D02*
X116720000Y-76250000D01*
X120370000Y-76250000D02*
G75*
G03*
X118370000Y-76250000I-1000000J0D01*
G01*
%TO.C,J4*%
X180040000Y-122260000D02*
X180040000Y-123000000D01*
X180040000Y-123000000D02*
X180540000Y-123000000D01*
X180280000Y-112839000D02*
X180280000Y-122760000D01*
X180280000Y-112839000D02*
X190560000Y-112839000D01*
X180280000Y-115799000D02*
X190560000Y-115799000D01*
X180280000Y-120700000D02*
X190560000Y-120700000D01*
X180280000Y-122200000D02*
X190560000Y-122200000D01*
X180280000Y-122760000D02*
X190560000Y-122760000D01*
X186733000Y-119123000D02*
X186686000Y-119169000D01*
X186926000Y-119339000D02*
X186891000Y-119374000D01*
X189030000Y-116825000D02*
X188995000Y-116861000D01*
X189235000Y-117031000D02*
X189188000Y-117077000D01*
X190560000Y-112839000D02*
X190560000Y-122760000D01*
X181345001Y-117416001D02*
G75*
G03*
X181344574Y-118783042I1534992J-684000D01*
G01*
X183563999Y-116565001D02*
G75*
G03*
X182196958Y-116564574I-684000J-1534992D01*
G01*
X182196000Y-119634999D02*
G75*
G03*
X182908805Y-119780252I683999J1535000D01*
G01*
X182880000Y-119779999D02*
G75*
G03*
X183563318Y-119634755I0J1679999D01*
G01*
X184415000Y-118784000D02*
G75*
G03*
X184415426Y-117416958I-1535000J684000D01*
G01*
X189640000Y-118100000D02*
G75*
G03*
X186280000Y-118100000I-1680000J0D01*
G01*
X186280000Y-118100000D02*
G75*
G03*
X189640000Y-118100000I1680000J0D01*
G01*
%TO.C,R2*%
X139160000Y-62330000D02*
X132620000Y-62330000D01*
X139160000Y-62000000D02*
X139160000Y-62330000D01*
X139160000Y-59920000D02*
X139160000Y-59590000D01*
X139160000Y-59590000D02*
X132620000Y-59590000D01*
X132620000Y-62330000D02*
X132620000Y-62000000D01*
X132620000Y-59590000D02*
X132620000Y-59920000D01*
%TO.C,RV1*%
X164905000Y-78730000D02*
X164905000Y-73660000D01*
X164905000Y-78730000D02*
X155135000Y-78730000D01*
X164905000Y-73660000D02*
X155135000Y-73660000D01*
X155135000Y-78730000D02*
X155135000Y-73660000D01*
%TO.C,J3*%
X174480000Y-96100000D02*
X174480000Y-96840000D01*
X174480000Y-96840000D02*
X174980000Y-96840000D01*
X174720000Y-86679000D02*
X174720000Y-96600000D01*
X174720000Y-86679000D02*
X185000000Y-86679000D01*
X174720000Y-89639000D02*
X185000000Y-89639000D01*
X174720000Y-94540000D02*
X185000000Y-94540000D01*
X174720000Y-96040000D02*
X185000000Y-96040000D01*
X174720000Y-96600000D02*
X185000000Y-96600000D01*
X181173000Y-92963000D02*
X181126000Y-93009000D01*
X181366000Y-93179000D02*
X181331000Y-93214000D01*
X183470000Y-90665000D02*
X183435000Y-90701000D01*
X183675000Y-90871000D02*
X183628000Y-90917000D01*
X185000000Y-86679000D02*
X185000000Y-96600000D01*
X175785001Y-91256001D02*
G75*
G03*
X175784574Y-92623042I1534992J-684000D01*
G01*
X178003999Y-90405001D02*
G75*
G03*
X176636958Y-90404574I-684000J-1534992D01*
G01*
X176636000Y-93474999D02*
G75*
G03*
X177348805Y-93620252I683999J1535000D01*
G01*
X177320000Y-93619999D02*
G75*
G03*
X178003318Y-93474755I0J1679999D01*
G01*
X178855000Y-92624000D02*
G75*
G03*
X178855426Y-91256958I-1535000J684000D01*
G01*
X184080000Y-91940000D02*
G75*
G03*
X180720000Y-91940000I-1680000J0D01*
G01*
X180720000Y-91940000D02*
G75*
G03*
X184080000Y-91940000I1680000J0D01*
G01*
%TD*%
M02*
